<?xml version="1.0" encoding="utf-8"?>
<!-- Generator: Adobe Illustrator 26.0.0, SVG Export Plug-In . SVG Version: 6.00 Build 0)  -->
<svg version="1.1" xmlns="http://www.w3.org/2000/svg" xmlns:xlink="http://www.w3.org/1999/xlink" x="0px" y="0px"
	 viewBox="0 0 1920 1080" style="enable-background:new 0 0 1920 1080;" xml:space="preserve">
<style type="text/css">
	.st0{fill:#930000;}
	.st1{fill:#FFFFFF;}
	.st2{fill:#00255B;}
	.st3{fill:#001428;}
	.st4{fill:#004496;}
</style>
<g id="red">
	<g>
		<g>
			<polygon class="st0" points="1769.59,163.87 1768.59,162.87 1768.59,62.87 1769.59,61.87 1861.59,61.87 1862.59,62.87 
				1862.59,162.87 1861.59,163.87 			"/>
			<path class="st1" d="M1861.59,62.87v100h-92v-100H1861.59 M1861.59,60.87h-92l-2,2v100l2,2h92l2-2v-100L1861.59,60.87
				L1861.59,60.87z"/>
		</g>
		<g>
			<polygon class="st0" points="1721.59,200.87 1720.59,199.87 1720.59,99.87 1721.59,98.87 1813.59,98.87 1814.59,99.87 
				1814.59,199.87 1813.59,200.87 			"/>
			<path class="st1" d="M1813.59,99.87v100h-92v-100H1813.59 M1813.59,97.87h-92l-2,2v100l2,2h92l2-2v-100L1813.59,97.87
				L1813.59,97.87z"/>
		</g>
		<g>
			<polygon class="st0" points="1812.59,199.87 1812.59,99.87 1812.98,99.07 1860.98,62.07 1862.59,62.87 1862.59,162.87 
				1862.2,163.66 1814.2,200.66 			"/>
			<path class="st1" d="M1861.59,62.87v100l-48,37v-100L1861.59,62.87 M1860.37,61.28l-48,37l-0.78,1.58v100l3.22,1.58l48-37
				l0.78-1.58v-100L1860.37,61.28L1860.37,61.28z"/>
		</g>
		<g>
			<polygon class="st0" points="1720.59,100.87 1719.96,99.09 1765.96,62.09 1766.59,61.87 1858.59,61.87 1859.22,63.64 
				1813.22,100.64 1812.59,100.87 			"/>
			<path class="st1" d="M1858.59,62.87l-46,37h-92l46-37H1858.59 M1858.59,60.87h-92l-1.25,0.44l-46,37l1.25,3.56h92l1.25-0.44
				l46-37L1858.59,60.87L1858.59,60.87z"/>
		</g>
	</g>
</g>
<g id="blue">
	<g>
		<g>
			<polygon class="st2" points="918.09,460.37 917.09,459.37 917.09,368.37 918.09,367.37 1010.09,367.37 1011.09,368.37 
				1011.09,459.37 1010.09,460.37 			"/>
			<path class="st3" d="M1010.09,368.37v91h-92v-91H1010.09 M1010.09,366.37h-92l-2,2v91l2,2h92l2-2v-91L1010.09,366.37
				L1010.09,366.37z"/>
		</g>
		<g>
			<polygon class="st2" points="704.59,510.87 704.04,509.03 916.54,367.53 917.09,367.37 1009.09,367.37 1009.65,369.2 
				797.15,510.7 796.59,510.87 			"/>
			<path class="st3" d="M1009.09,368.37l-212.5,141.5h-92l212.5-141.5H1009.09 M1009.09,366.37h-92l-1.11,0.34l-212.5,141.5
				l1.11,3.66h92l1.11-0.34l212.5-141.5L1009.09,366.37L1009.09,366.37z"/>
		</g>
		<g>
			<polygon class="st4" points="704.59,602.87 703.59,601.87 703.59,510.87 704.59,509.87 796.59,509.87 797.59,510.87 
				797.59,601.87 796.59,602.87 			"/>
			<path class="st3" d="M796.59,510.87v91h-92v-91H796.59 M796.59,508.87h-92l-2,2v91l2,2h92l2-2v-91L796.59,508.87L796.59,508.87z"
				/>
		</g>
		<g>
			<polygon class="st4" points="795.59,601.87 795.59,510.87 796.04,510.03 1009.54,367.53 1011.09,368.37 1011.09,459.37 
				1010.65,460.2 797.15,602.7 			"/>
			<path class="st3" d="M1010.09,368.37v91l-213.5,142.5v-91L1010.09,368.37 M1008.98,366.7l-213.5,142.5l-0.89,1.66v91l3.11,1.66
				l213.5-142.5l0.89-1.66v-91L1008.98,366.7L1008.98,366.7z"/>
		</g>
	</g>
</g>
<g id="layer-f">
	<path d="M75.94,1081.4H7.69V811.39h200.48v55.45H75.94v61.85h123.7v55.45H75.94V1081.4z"/>
</g>
<g id="layer-r">
	<path d="M449.46,705.1v49.77h-196.9c5.27-59.16-25.77-167.19,65.63-164.86c29.3-0.38,57.02,15.62,63.15,44.17l0.93,0.31
		c14.9-20.42,45.4-38.04,66.88-51.95h0.31v57.86c-6.86,4.97-54.08,35.72-59.1,40.59c-5.9,5.71-3.49,15.45-4.04,24.11H449.46z
		 M292.99,669.01v36.08h52.88c-1.16-12.91,3.87-49.23-6.22-57.7c-7.06-8.09-33.37-8.09-40.44,0
		C295.07,651.44,292.99,658.64,292.99,669.01z"/>
</g>
<g id="layer-e">
	<path d="M854.08,1081.4V843.77h176.44v48.8H914.14v45.05h100.98v48.8H914.14v46.18h116.38v48.8H854.08z"/>
</g>
<g id="layer-a">
	<path d="M1217.64,1081.4l-0.81-0.26l14.78-45.99c11.1,0.3,23.8,0.42,35.95,0.51l18.77-58.43c-11.47-7.67-21.3-14.51-29.52-20.53
		l14.78-45.99c0.52-0.26,152.97,110.38,153.41,110.48l-19.12,59.51L1217.64,1081.4z M1384.77,1040.5
		c-20.31-11.23-46.51-28.51-67.85-42.39l-12.43,38.68c25.49,0.79,56.87,2.1,79.93,4.79L1384.77,1040.5z"/>
</g>
<g id="layer-k">
	<path d="M1764.75,1080.76h-60.07V843.13h60.07v99.48c7.66,0.46,14.56-12.37,19.15-18.02c31.03-51.95,46.75-87.19,115.62-81.46v1.13
		c-9.92,15.73-45.84,74.64-55.56,89.16c-7.43,10.43-16.13,24.28-26.28,28.72v1.13c9.73,4.69,18.69,16.78,26.47,26.47
		c10.24,12.79,53.72,75.51,64.01,89.91v1.13c-70.71,4.76-81.57-16.86-116-72.08v0.38c-6.11-7.91-15.92-26.65-27.4-26.65V1080.76z"/>
</g>
</svg>
