<svg xmlns="http://www.w3.org/2000/svg" viewBox="0 0 742 742"><defs><style>.cls-1{fill:#212121;stroke:#219653;stroke-linecap:square;stroke-linejoin:bevel;stroke-width:7px;}.cls-2{fill:none;stroke-linecap:round;stroke-width:5px;}.cls-2,.cls-4{stroke:#e3651b;stroke-miterlimit:10;}.cls-3{fill:#e3651b;}.cls-4,.cls-8{fill:#219653;}.cls-5{fill:#176637;}.cls-6{fill:#134f2b;}.cls-7{fill:#e2a01e;}</style></defs><g id="Layer_2" data-name="Layer 2"><g id="Layer_14" data-name="Layer 14"><path class="cls-1" d="M588.81,71.5H155.19L72.5,154.19V587.81l82.69,82.69H588.81l82.69-82.69V154.19Z"/><path class="cls-2" d="M447.38,664.63c16.65-50.18-97.5-64.28-116.66-114.16-21.83-49.89,178.92-51.4,204.2-101.59,28-50.19-277.69-48.07-307.52-98-32.49-49.89,399.77-52.61,436-102.8,39-50.19-541.48-46.87-582-96.75"/><circle class="cls-3" cx="449.69" cy="655.95" r="60.06"/><circle class="cls-4" cx="406.56" cy="688.71" r="27.69"/><path class="cls-3" d="M406.41,661a27.67,27.67,0,0,0-24.24,14.56,37.4,37.4,0,0,1,24.2,40.81h.33a27.69,27.69,0,1,0-.29-55.38Z"/><circle class="cls-4" cx="489.48" cy="688.66" r="27.69"/><path class="cls-3" d="M462.14,693.05a27.68,27.68,0,0,0,18.11,21.72,37.49,37.49,0,0,1,36.61-30.18c0-.11,0-.22,0-.33a27.69,27.69,0,0,0-54.68,8.79Z"/><path class="cls-4" d="M448.87,645a54.12,54.12,0,0,1,46.18,24.08,54.2,54.2,0,1,0-90.78,1A54.11,54.11,0,0,1,448.87,645Z"/><path class="cls-5" d="M462.35,627.36c0,5.25-5.78,16.64-12.91,16.64s-12.9-11.39-12.9-16.64,5.78-9.52,12.9-9.52S462.35,622.1,462.35,627.36Z"/><ellipse class="cls-6" cx="455.19" cy="633.41" rx="5.8" ry="3.17" transform="translate(-313.16 767.76) rotate(-64.22)"/><ellipse class="cls-6" cx="443.7" cy="633.41" rx="3.17" ry="5.8" transform="translate(-231.35 256.07) rotate(-25.78)"/><polygon class="cls-7" points="384.41 692.55 354.69 718.76 371.59 711.19 348.87 731 382.18 711.77 370.94 731 397.81 707.7 384.41 692.55"/><polygon class="cls-7" points="505.59 692.55 535.31 718.76 518.41 711.19 541.13 731 507.82 711.77 519.06 731 492.19 707.7 505.59 692.55"/><path class="cls-8" d="M659.31,0H82.69L0,82.69V659.31L82.69,742H659.31L742,659.31V82.69ZM671.5,587.81,588.81,670.5H155.19L72.5,587.81V154.19L155.19,71.5H588.81l82.69,82.69Z"/></g></g></svg>