{
    "asset" : {
        "generator" : "Khronos glTF Blender I/O v3.3.32",
        "version" : "2.0"
    },
    "extensionsUsed" : [
        "KHR_materials_specular",
        "KHR_materials_ior"
    ],
    "scene" : 0,
    "scenes" : [
        {
            "name" : "Scene",
            "nodes" : [
                0,
                1
            ]
        }
    ],
    "nodes" : [
        {
            "mesh" : 0,
            "name" : "Text",
            "rotation" : [
                0.7071068286895752,
                0,
                0,
                0.7071068286895752
            ],
            "scale" : [
                10,
                10,
                10
            ],
            "translation" : [
                -19.461149215698242,
                1.3974757194519043,
                8.26894760131836
            ]
        },
        {
            "mesh" : 1,
            "name" : "Text.004",
            "rotation" : [
                0.7071068286895752,
                0,
                0,
                0.7071068286895752
            ],
            "scale" : [
                4.0422797203063965,
                4.0422797203063965,
                4.0422797203063965
            ],
            "translation" : [
                7.63521671295166,
                -3.000302791595459,
                8.26894760131836
            ]
        }
    ],
    "materials" : [
        {
            "doubleSided" : true,
            "extensions" : {
                "KHR_materials_specular" : {
                    "specularColorFactor" : [
                        2.371357614441398,
                        2.371357614441398,
                        2.371357614441398
                    ]
                },
                "KHR_materials_ior" : {
                    "ior" : 1.4500000476837158
                }
            },
            "name" : "Material.001",
            "pbrMetallicRoughness" : {
                "metallicFactor" : 0
            }
        }
    ],
    "meshes" : [
        {
            "name" : "Text",
            "primitives" : [
                {
                    "attributes" : {
                        "POSITION" : 0,
                        "NORMAL" : 1,
                        "TEXCOORD_0" : 2
                    },
                    "indices" : 3,
                    "material" : 0
                }
            ]
        },
        {
            "name" : "Text.005",
            "primitives" : [
                {
                    "attributes" : {
                        "POSITION" : 4,
                        "NORMAL" : 5,
                        "TEXCOORD_0" : 6
                    },
                    "indices" : 7
                }
            ]
        }
    ],
    "accessors" : [
        {
            "bufferView" : 0,
            "componentType" : 5126,
            "count" : 1908,
            "max" : [
                4.219740390777588,
                0.06999994814395905,
                0.3556506931781769
            ],
            "min" : [
                -0.013176338747143745,
                -0.06999994814395905,
                -0.8805137872695923
            ],
            "type" : "VEC3"
        },
        {
            "bufferView" : 1,
            "componentType" : 5126,
            "count" : 1908,
            "type" : "VEC3"
        },
        {
            "bufferView" : 2,
            "componentType" : 5126,
            "count" : 1908,
            "type" : "VEC2"
        },
        {
            "bufferView" : 3,
            "componentType" : 5123,
            "count" : 7476,
            "type" : "SCALAR"
        },
        {
            "bufferView" : 4,
            "componentType" : 5126,
            "count" : 1186,
            "max" : [
                2.500744342803955,
                0.06999994814395905,
                0.20338928699493408
            ],
            "min" : [
                -0.05143764615058899,
                -0.06999994814395905,
                -0.8419692516326904
            ],
            "type" : "VEC3"
        },
        {
            "bufferView" : 5,
            "componentType" : 5126,
            "count" : 1186,
            "type" : "VEC3"
        },
        {
            "bufferView" : 6,
            "componentType" : 5126,
            "count" : 1186,
            "type" : "VEC2"
        },
        {
            "bufferView" : 7,
            "componentType" : 5123,
            "count" : 4764,
            "type" : "SCALAR"
        }
    ],
    "bufferViews" : [
        {
            "buffer" : 0,
            "byteLength" : 22896,
            "byteOffset" : 0,
            "target" : 34962
        },
        {
            "buffer" : 0,
            "byteLength" : 22896,
            "byteOffset" : 22896,
            "target" : 34962
        },
        {
            "buffer" : 0,
            "byteLength" : 15264,
            "byteOffset" : 45792,
            "target" : 34962
        },
        {
            "buffer" : 0,
            "byteLength" : 14952,
            "byteOffset" : 61056,
            "target" : 34963
        },
        {
            "buffer" : 0,
            "byteLength" : 14232,
            "byteOffset" : 76008,
            "target" : 34962
        },
        {
            "buffer" : 0,
            "byteLength" : 14232,
            "byteOffset" : 90240,
            "target" : 34962
        },
        {
            "buffer" : 0,
            "byteLength" : 9488,
            "byteOffset" : 104472,
            "target" : 34962
        },
        {
            "buffer" : 0,
            "byteLength" : 9528,
            "byteOffset" : 113960,
            "target" : 34963
        }
    ],
    "buffers" : [
        {
            "byteLength" : 123488,
            "uri" : "data:application/octet-stream;base64,"
        }
    ]
}
