{
    "asset" : {
        "generator" : "Khronos glTF Blender I/O v3.3.32",
        "version" : "2.0"
    },
    "extensionsUsed" : [
        "KHR_materials_variants"
    ],
    "extensionsRequired" : [
        "KHR_materials_variants"
    ],
    "extensions" : {
        "KHR_materials_variants" : {
            "variants" : [
                {
                    "name" : 0
                },
                {
                    "name" : 1
                }
            ]
        }
    },
    "scene" : 0,
    "scenes" : [
        {
            "extras" : {
                "ht_props" : {
                    "hair_drawing" : {},
                    "jiggle_props" : {
                        "sim_is_running" : 0
                    }
                },
                "hair_brush_3d" : {},
                "bc" : {
                    "snap" : {
                        "hit" : 0
                    }
                },
                "scatter5" : {
                    "emitter" : {}
                },
                "general_settings" : {},
                "atmosphere_settings" : {},
                "CC3ImportProps" : {},
                "qremesher" : {},
                "gltf2_KHR_materials_variants_variants" : [
                    {
                        "variant_idx" : 0,
                        "name" : "first"
                    },
                    {
                        "variant_idx" : 1,
                        "name" : "second"
                    }
                ],
                "gltf2_active_variant" : 0
            },
            "name" : "Scene",
            "nodes" : [
                0
            ]
        }
    ],
    "nodes" : [
        {
            "extras" : {
                "sparkar_optimization" : {},
                "scatter5" : {},
                "hops" : {},
                "ht_props" : {
                    "short_hair_props" : {},
                    "hair_settings" : {}
                },
                "VariantMaterialArrayProperty" : {
                    "value" : [
                        {
                            "material" : {
                                "name" : "first",
                                "type" : "Material"
                            },
                            "name" : "first"
                        },
                        {
                            "material" : {
                                "name" : "second",
                                "type" : "Material"
                            },
                            "name" : "second"
                        }
                    ]
                },
                "id_keys" : {}
            },
            "mesh" : 0,
            "name" : "Cube"
        }
    ],
    "materials" : [
        {
            "doubleSided" : true,
            "name" : "second",
            "pbrMetallicRoughness" : {
                "baseColorTexture" : {
                    "index" : 0
                },
                "metallicFactor" : 0,
                "roughnessFactor" : 0.5
            }
        }
    ],
    "meshes" : [
        {
            "extras" : {
                "gltf2_variant_mesh_data" : [
                    {
                        "material_slot_index" : 0,
                        "material" : {
                            "name" : "first",
                            "type" : "Material"
                        },
                        "variants" : [
                            {
                                "variant" : {
                                    "variant_idx" : 0
                                }
                            },
                            {
                                "variant" : {
                                    "variant_idx" : 1
                                }
                            },
                            {
                                "variant" : {
                                    "variant_idx" : 1
                                }
                            },
                            {
                                "variant" : {
                                    "variant_idx" : 0
                                }
                            },
                            {
                                "variant" : {
                                    "variant_idx" : 0
                                }
                            },
                            {
                                "variant" : {
                                    "variant_idx" : 0
                                }
                            },
                            {
                                "variant" : {
                                    "variant_idx" : 1
                                }
                            },
                            {
                                "variant" : {
                                    "variant_idx" : 1
                                }
                            },
                            {
                                "variant" : {
                                    "variant_idx" : 1
                                }
                            },
                            {
                                "variant" : {
                                    "variant_idx" : 1
                                }
                            },
                            {
                                "variant" : {
                                    "variant_idx" : 0
                                }
                            },
                            {
                                "variant" : {
                                    "variant_idx" : 0
                                }
                            },
                            {
                                "variant" : {
                                    "variant_idx" : 0
                                }
                            },
                            {
                                "variant" : {
                                    "variant_idx" : 0
                                }
                            }
                        ]
                    },
                    {
                        "material_slot_index" : 1,
                        "material" : {
                            "name" : "second",
                            "type" : "Material"
                        },
                        "variants" : [
                            {
                                "variant" : {
                                    "variant_idx" : 0
                                }
                            },
                            {
                                "variant" : {
                                    "variant_idx" : 1
                                }
                            },
                            {
                                "variant" : {
                                    "variant_idx" : 1
                                }
                            },
                            {
                                "variant" : {
                                    "variant_idx" : 0
                                }
                            },
                            {
                                "variant" : {
                                    "variant_idx" : 0
                                }
                            },
                            {
                                "variant" : {
                                    "variant_idx" : 0
                                }
                            },
                            {
                                "variant" : {
                                    "variant_idx" : 1
                                }
                            },
                            {
                                "variant" : {
                                    "variant_idx" : 1
                                }
                            },
                            {
                                "variant" : {
                                    "variant_idx" : 1
                                }
                            },
                            {
                                "variant" : {
                                    "variant_idx" : 1
                                }
                            },
                            {
                                "variant" : {
                                    "variant_idx" : 0
                                }
                            },
                            {
                                "variant" : {
                                    "variant_idx" : 0
                                }
                            },
                            {
                                "variant" : {
                                    "variant_idx" : 0
                                }
                            },
                            {
                                "variant" : {
                                    "variant_idx" : 0
                                }
                            }
                        ]
                    }
                ],
                "gltf2_variant_default_materials" : [
                    {
                        "material_slot_index" : 0,
                        "default_material" : {
                            "name" : "first",
                            "type" : "Material"
                        }
                    },
                    {
                        "material_slot_index" : 1,
                        "default_material" : {
                            "name" : "second",
                            "type" : "Material"
                        }
                    }
                ]
            },
            "name" : "Cube",
            "primitives" : [
                {
                    "attributes" : {
                        "POSITION" : 0,
                        "NORMAL" : 1,
                        "TEXCOORD_0" : 2
                    },
                    "extensions" : {
                        "KHR_materials_variants" : {
                            "mappings" : [
                                {
                                    "material" : 0,
                                    "variants" : [
                                        0,
                                        1
                                    ]
                                }
                            ]
                        }
                    },
                    "indices" : 3,
                    "material" : 0
                }
            ]
        }
    ],
    "textures" : [
        {
            "sampler" : 0,
            "source" : 0
        }
    ],
    "images" : [
        {
            "bufferView" : 3,
            "mimeType" : "image/jpeg",
            "name" : "img14"
        }
    ],
    "accessors" : [
        {
            "bufferView" : 0,
            "componentType" : 5126,
            "count" : 24,
            "max" : [
                1,
                1,
                1
            ],
            "min" : [
                -1,
                -1,
                -1
            ],
            "type" : "VEC3"
        },
        {
            "bufferView" : 1,
            "componentType" : 5126,
            "count" : 24,
            "type" : "VEC3"
        },
        {
            "bufferView" : 2,
            "componentType" : 5126,
            "count" : 24,
            "type" : "VEC2"
        },
        {
            "bufferView" : 4,
            "componentType" : 5123,
            "count" : 36,
            "type" : "SCALAR"
        }
    ],
    "bufferViews" : [
        {
            "buffer" : 0,
            "byteLength" : 288,
            "byteOffset" : 0,
            "target" : 34962
        },
        {
            "buffer" : 0,
            "byteLength" : 288,
            "byteOffset" : 288,
            "target" : 34962
        },
        {
            "buffer" : 0,
            "byteLength" : 192,
            "byteOffset" : 576,
            "target" : 34962
        },
        {
            "buffer" : 0,
            "byteLength" : 2072615,
            "byteOffset" : 768
        },
        {
            "buffer" : 0,
            "byteLength" : 72,
            "byteOffset" : 2073384,
            "target" : 34963
        }
    ],
    "samplers" : [
        {
            "magFilter" : 9729,
            "minFilter" : 9987
        }
    ],
    "buffers" : [
        {
            "byteLength" : 2073456,
            "uri" : "data:application/octet-stream;base64,"
        }
    ]
}
