<?xml version="1.0" encoding="utf-8"?>
<!-- Generator: Adobe Illustrator 26.0.0, SVG Export Plug-In . SVG Version: 6.00 Build 0)  -->
<svg version="1.1" xmlns="http://www.w3.org/2000/svg" xmlns:xlink="http://www.w3.org/1999/xlink" x="0px" y="0px"
	 viewBox="0 0 595.28 841.89" style="enable-background:new 0 0 595.28 841.89;" xml:space="preserve">
<style type="text/css">
	.st0{fill:#2CC0D0;}
	.st1{fill:none;stroke:#6ACBDA;stroke-width:0.5;stroke-miterlimit:10;}
	.st2{fill:none;}
	.st3{fill:#F2F2F3;}
	.st4{font-family:'FredokaOne-Regular';}
	.st5{font-size:11.9569px;}
	.st6{fill:none;stroke:#2CC0D0;stroke-miterlimit:10;}
	.st7{fill:none;stroke:#F36E24;stroke-miterlimit:10;}
	.st8{fill:#F36E24;}
	.st9{font-family:'Calibri';}
	.st10{fill:#003149;stroke:#31C0D0;stroke-width:3;stroke-miterlimit:10;}
	.st11{fill:#003149;}
	.st12{fill:#005181;}
	.st13{font-size:16.6351px;}
	.st14{fill:#F7F7F7;}
	.st15{font-family:'Calibri-Bold';}
	.st16{fill:none;stroke:#196061;stroke-miterlimit:10;}
	.st17{fill:#1C888E;}
	.st18{fill:none;stroke:#F7CB3D;stroke-miterlimit:10;}
	.st19{fill:#F7CB3D;}
	.st20{fill:#3671A4;}
	.st21{font-size:14px;}
	.st22{fill:none;stroke:#2CC0D0;stroke-width:0.5;stroke-miterlimit:10;}
	.st23{fill:#F15D22;}
	.st24{fill:#701E5E;}
	.st25{fill:#902372;}
	.st26{fill:#005893;}
	.st27{fill:#3696D2;}
	.st28{fill:#B12124;}
	.st29{fill:#DA3B26;}
	.st30{fill:#DC8827;}
	.st31{fill:#CC6828;stroke:#DC8827;stroke-width:0.75;stroke-linecap:round;stroke-miterlimit:10;}
	.st32{fill:none;stroke:#CC6828;stroke-width:0.5;stroke-linecap:round;stroke-miterlimit:10;}
	.st33{fill:#171717;}
	.st34{font-size:15px;}
	.st35{fill:none;stroke:#F2F2F3;stroke-miterlimit:10;}
	.st36{fill:#212121;}
	.st37{fill:#1E1E1E;}
	.st38{fill:#58C6CF;}
</style>
<g id="blender">
	<g>
		<g>
			<g>
				<line class="st0" x1="187.66" y1="148.21" x2="307.99" y2="152.81"/>
				<line class="st1" x1="187.66" y1="148.21" x2="307.99" y2="152.81"/>
			</g>
			<g>
				<line class="st0" x1="215.75" y1="254.84" x2="279.9" y2="152.93"/>
				<line class="st1" x1="215.75" y1="254.84" x2="279.9" y2="152.93"/>
			</g>
			<g>
				<line class="st0" x1="322.14" y1="283.83" x2="265.96" y2="177.32"/>
				<line class="st1" x1="322.14" y1="283.83" x2="265.96" y2="177.32"/>
			</g>
			<g>
				<line class="st0" x1="400.44" y1="206.19" x2="280.11" y2="201.58"/>
				<line class="st1" x1="400.44" y1="206.19" x2="280.11" y2="201.58"/>
			</g>
			<g>
				<line class="st0" x1="372.35" y1="99.56" x2="308.2" y2="201.47"/>
				<line class="st1" x1="372.35" y1="99.56" x2="308.2" y2="201.47"/>
			</g>
			<g>
				<line class="st0" x1="265.96" y1="70.57" x2="322.14" y2="177.08"/>
				<line class="st1" x1="265.96" y1="70.57" x2="322.14" y2="177.08"/>
			</g>
		</g>
		<g>
			<rect x="193.42" y="50.63" class="st2" width="54.53" height="12.82"/>
			<text transform="matrix(1 0 0 1 193.4173 59.1172)" class="st3 st4 st5">Modeling</text>
			<rect x="193.42" y="50.63" class="st2" width="54.53" height="12.82"/>
			<text transform="matrix(1 0 0 1 193.4173 59.1172)" class="st4 st5">Modeling</text>
		</g>
		<g>
			<g>
				<circle class="st6" cx="305.48" cy="73.11" r="4.45"/>
			</g>
			<g>
				<circle class="st6" cx="293.52" cy="73.11" r="4.45"/>
			</g>
			<g>
				<circle class="st0" cx="281.56" cy="73.11" r="4.45"/>
			</g>
			<g>
				<circle class="st0" cx="269.61" cy="73.11" r="4.45"/>
			</g>
			<g>
				<circle class="st0" cx="257.65" cy="73.11" r="4.45"/>
			</g>
			<g>
				<circle class="st0" cx="245.69" cy="73.11" r="4.45"/>
			</g>
			<g>
				<circle class="st0" cx="233.74" cy="73.11" r="4.45"/>
			</g>
			<g>
				<circle class="st0" cx="221.78" cy="73.11" r="4.45"/>
			</g>
			<g>
				<circle class="st0" cx="209.82" cy="73.11" r="4.45"/>
			</g>
			<g>
				<circle class="st0" cx="197.87" cy="73.11" r="4.45"/>
			</g>
		</g>
		<g>
			<g>
				<circle class="st7" cx="359.86" cy="234.48" r="4.45"/>
			</g>
			<g>
				<circle class="st7" cx="347.9" cy="234.48" r="4.45"/>
			</g>
			<g>
				<circle class="st8" cx="335.95" cy="234.48" r="4.45"/>
			</g>
			<g>
				<circle class="st8" cx="323.99" cy="234.48" r="4.45"/>
			</g>
			<g>
				<circle class="st8" cx="312.03" cy="234.48" r="4.45"/>
			</g>
			<g>
				<circle class="st8" cx="300.08" cy="234.48" r="4.45"/>
			</g>
			<g>
				<circle class="st8" cx="288.12" cy="234.48" r="4.45"/>
			</g>
			<g>
				<circle class="st8" cx="276.16" cy="234.48" r="4.45"/>
			</g>
			<g>
				<circle class="st8" cx="264.21" cy="234.48" r="4.45"/>
			</g>
			<g>
				<circle class="st8" cx="252.25" cy="234.48" r="4.45"/>
			</g>
		</g>
		<rect x="38.9" y="122.32" class="st2" width="54.53" height="12.82"/>
		<text transform="matrix(1 0 0 1 38.9007 130.4277)" class="st3 st9 st5">Sculpting</text>
		<g>
			<g>
				<circle class="st6" cx="169.35" cy="144.81" r="4.45"/>
			</g>
			<g>
				<circle class="st6" cx="155.35" cy="144.81" r="4.45"/>
			</g>
			<g>
				<circle class="st6" cx="141.35" cy="144.81" r="4.45"/>
			</g>
			<g>
				<circle class="st6" cx="127.35" cy="144.81" r="4.45"/>
			</g>
			<g>
				<circle class="st0" cx="113.35" cy="144.81" r="4.45"/>
			</g>
			<g>
				<circle class="st0" cx="99.35" cy="144.81" r="4.45"/>
			</g>
			<g>
				<circle class="st0" cx="85.35" cy="144.81" r="4.45"/>
			</g>
			<g>
				<circle class="st0" cx="71.35" cy="144.81" r="4.45"/>
			</g>
			<g>
				<circle class="st0" cx="57.35" cy="144.81" r="4.45"/>
			</g>
			<g>
				<circle class="st0" cx="43.35" cy="144.81" r="4.45"/>
			</g>
		</g>
		<rect x="71.06" y="242.54" class="st2" width="93.72" height="12.82"/>
		<text transform="matrix(1 0 0 1 71.0628 250.645)" class="st3 st9 st5">Motion Graphics</text>
		<g>
			<g>
				<circle class="st6" cx="201.51" cy="265.03" r="4.45"/>
			</g>
			<g>
				<circle class="st6" cx="187.51" cy="265.03" r="4.45"/>
			</g>
			<g>
				<circle class="st6" cx="173.51" cy="265.03" r="4.45"/>
			</g>
			<g>
				<circle class="st6" cx="159.51" cy="265.03" r="4.45"/>
			</g>
			<g>
				<circle class="st0" cx="145.51" cy="265.03" r="4.45"/>
			</g>
			<g>
				<circle class="st0" cx="131.51" cy="265.03" r="4.45"/>
			</g>
			<g>
				<circle class="st0" cx="117.51" cy="265.03" r="4.45"/>
			</g>
			<g>
				<circle class="st0" cx="103.51" cy="265.03" r="4.45"/>
			</g>
			<g>
				<circle class="st0" cx="89.51" cy="265.03" r="4.45"/>
			</g>
			<g>
				<circle class="st0" cx="75.51" cy="265.03" r="4.45"/>
			</g>
		</g>
		<rect x="320.04" y="273.83" class="st2" width="54.53" height="12.82"/>
		<text transform="matrix(1 0 0 1 320.0384 281.9321)" class="st3 st9 st5">VFX</text>
		<rect x="273.04" y="213.83" class="st2" width="71.91" height="12.82"/>
		<text transform="matrix(1 0 0 1 273.0384 221.9321)" class="st8 st9 st5">BLENDER3D</text>
		<g>
			<g>
				<circle class="st6" cx="450.49" cy="296.31" r="4.45"/>
			</g>
			<g>
				<circle class="st6" cx="436.49" cy="296.31" r="4.45"/>
			</g>
			<g>
				<circle class="st6" cx="422.49" cy="296.31" r="4.45"/>
			</g>
			<g>
				<circle class="st6" cx="408.49" cy="296.31" r="4.45"/>
			</g>
			<g>
				<circle class="st0" cx="394.49" cy="296.31" r="4.45"/>
			</g>
			<g>
				<circle class="st0" cx="380.49" cy="296.31" r="4.45"/>
			</g>
			<g>
				<circle class="st0" cx="366.49" cy="296.31" r="4.45"/>
			</g>
			<g>
				<circle class="st0" cx="352.49" cy="296.31" r="4.45"/>
			</g>
			<g>
				<circle class="st0" cx="338.49" cy="296.31" r="4.45"/>
			</g>
			<g>
				<circle class="st0" cx="324.49" cy="296.31" r="4.45"/>
			</g>
		</g>
		<rect x="405.78" y="187.3" class="st2" width="70.34" height="12.82"/>
		<text transform="matrix(1 0 0 1 405.7796 195.4014)" class="st3 st9 st5">Animation</text>
		<g>
			<g>
				<circle class="st6" cx="536.23" cy="209.78" r="4.45"/>
			</g>
			<g>
				<circle class="st6" cx="522.23" cy="209.78" r="4.45"/>
			</g>
			<g>
				<circle class="st6" cx="508.23" cy="209.78" r="4.45"/>
			</g>
			<g>
				<circle class="st6" cx="494.23" cy="209.78" r="4.45"/>
			</g>
			<g>
				<circle class="st0" cx="480.23" cy="209.78" r="4.45"/>
			</g>
			<g>
				<circle class="st0" cx="466.23" cy="209.78" r="4.45"/>
			</g>
			<g>
				<circle class="st0" cx="452.23" cy="209.78" r="4.45"/>
			</g>
			<g>
				<circle class="st0" cx="438.23" cy="209.78" r="4.45"/>
			</g>
			<g>
				<circle class="st0" cx="424.23" cy="209.78" r="4.45"/>
			</g>
			<g>
				<circle class="st0" cx="410.23" cy="209.78" r="4.45"/>
			</g>
		</g>
		<g>
			<rect x="375.28" y="83.89" class="st2" width="54.53" height="12.82"/>
			<text transform="matrix(1 0 0 1 375.2816 92.3779)" class="st3 st4 st5">Rigging</text>
			<rect x="375.28" y="83.89" class="st2" width="54.53" height="12.82"/>
			<text transform="matrix(1 0 0 1 375.2816 92.3779)" class="st4 st5">Rigging</text>
		</g>
		<g>
			<g>
				<circle class="st6" cx="505.73" cy="106.38" r="4.45"/>
			</g>
			<g>
				<circle class="st6" cx="491.73" cy="106.38" r="4.45"/>
			</g>
			<g>
				<circle class="st6" cx="477.73" cy="106.38" r="4.45"/>
			</g>
			<g>
				<circle class="st6" cx="463.73" cy="106.38" r="4.45"/>
			</g>
			<g>
				<circle class="st6" cx="449.73" cy="106.38" r="4.45"/>
			</g>
			<g>
				<circle class="st6" cx="435.73" cy="106.38" r="4.45"/>
			</g>
			<g>
				<circle class="st0" cx="421.73" cy="106.38" r="4.45"/>
			</g>
			<g>
				<circle class="st0" cx="407.73" cy="106.38" r="4.45"/>
			</g>
			<g>
				<circle class="st0" cx="393.73" cy="106.38" r="4.45"/>
			</g>
			<g>
				<circle class="st0" cx="379.73" cy="106.38" r="4.45"/>
			</g>
		</g>
		<g>
			<circle class="st10" cx="298.69" cy="165.01" r="41.23"/>
			<g>
				<path class="st8" d="M286.93,170.55c-0.19,0.14-0.32,0.23-0.44,0.33c-3.52,2.88-7.05,5.76-10.57,8.65
					c-0.94,0.77-1.96,1.33-3.19,1.47c-3.12,0.34-5.03-2.22-3.8-5.12c0.42-0.98,1.1-1.74,1.96-2.37c6.76-4.99,13.52-9.99,20.27-14.98
					c0.15-0.11,0.31-0.23,0.43-0.45c-0.17,0-0.35,0-0.52,0c-3.53,0-7.07,0.01-10.6,0.01c-0.92,0-1.75-0.24-2.46-0.84
					c-1.84-1.56-1.57-4.37,0.54-5.67c1.01-0.62,2.13-0.77,3.28-0.77c7.43,0.01,14.87,0.01,22.3,0.02c0.16,0,0.32,0,0.6,0
					c-0.21-0.18-0.31-0.28-0.42-0.37c-2.21-1.77-4.41-3.54-6.62-5.31c-1.53-1.22-1.44-2.9,0.21-3.97c1.5-0.98,3.51-0.91,4.94,0.19
					c6.15,4.72,12.3,9.43,18.44,14.16c3.68,2.84,6.2,6.46,7.15,11.05c1.2,5.75-0.22,10.89-3.95,15.37
					c-3.42,4.11-7.88,6.47-13.14,7.27c-6.31,0.97-12.09-0.38-17.18-4.27c-3.54-2.71-5.96-6.22-6.93-10.62
					c-0.23-1.03-0.2-2.12-0.29-3.18C286.92,170.98,286.93,170.8,286.93,170.55z M308.1,157.08c-3.33,0.03-6.27,0.98-8.81,3.04
					c-5.2,4.21-5.55,11.52-0.78,16.2c5.03,4.94,13.8,4.99,18.88,0.09c4.72-4.55,4.6-11.58-0.29-15.94
					C314.51,158.17,311.45,157.13,308.1,157.08z"/>
				<path class="st11" d="M308.1,157.08c3.35,0.06,6.41,1.09,8.99,3.39c4.89,4.36,5.01,11.39,0.29,15.94
					c-5.08,4.9-13.84,4.86-18.88-0.09c-4.77-4.69-4.42-11.99,0.78-16.2C301.83,158.06,304.77,157.11,308.1,157.08z M307.41,174.67
					c2.3-0.01,3.88-0.51,5.2-1.47c3.38-2.47,3.75-7.04,0.79-9.92c-3.01-2.93-8.11-2.85-11.02,0.17c-2.44,2.54-2.44,6.39,0.02,8.91
					C303.93,173.93,305.82,174.65,307.41,174.67z"/>
				<path class="st12" d="M307.41,174.67c-1.59-0.02-3.48-0.73-5.01-2.3c-2.46-2.52-2.46-6.37-0.02-8.91
					c2.91-3.02,8.01-3.1,11.02-0.17c2.96,2.88,2.59,7.45-0.79,9.92C311.29,174.15,309.7,174.66,307.41,174.67z"/>
			</g>
		</g>
	</g>
</g>
<g id="python">
	<g>
		<rect x="404.47" y="447.37" class="st2" width="35.55" height="16.13"/>
		<text transform="matrix(1 0 0 1 404.469 458.6515)" class="st3 st9 st13">IA</text>
		<rect x="404.47" y="468.65" class="st2" width="174.65" height="16.13"/>
		<text transform="matrix(1 0 0 1 404.469 479.9249)" class="st3 st9 st13">Machine Learning</text>
		<g>
			<g>
				<circle class="st6" cx="536.66" cy="498.15" r="4.53"/>
			</g>
			<g>
				<circle class="st6" cx="522.66" cy="498.15" r="4.53"/>
			</g>
			<g>
				<circle class="st6" cx="508.66" cy="498.15" r="4.53"/>
			</g>
			<g>
				<circle class="st6" cx="494.66" cy="498.15" r="4.53"/>
			</g>
			<g>
				<circle class="st6" cx="480.66" cy="498.15" r="4.53"/>
			</g>
			<g>
				<circle class="st0" cx="466.66" cy="498.15" r="4.53"/>
			</g>
			<g>
				<circle class="st0" cx="452.66" cy="498.15" r="4.53"/>
			</g>
			<g>
				<circle class="st0" cx="438.66" cy="498.15" r="4.53"/>
			</g>
			<g>
				<circle class="st0" cx="424.66" cy="498.15" r="4.53"/>
			</g>
			<g>
				<circle class="st0" cx="410.66" cy="498.15" r="4.53"/>
			</g>
		</g>
		<rect x="354.18" y="762.79" class="st2" width="139.32" height="17.12"/>
		<text transform="matrix(1 0 0 1 354.1762 774.072)" class="st14 st15 st13">Deep Learning</text>
		<g>
			<g>
				<circle class="st16" cx="486.36" cy="794.08" r="4.7"/>
			</g>
			<g>
				<circle class="st16" cx="472.36" cy="794.08" r="4.7"/>
			</g>
			<g>
				<circle class="st16" cx="458.36" cy="794.08" r="4.7"/>
			</g>
			<g>
				<circle class="st16" cx="444.36" cy="794.08" r="4.7"/>
			</g>
			<g>
				<circle class="st16" cx="430.36" cy="794.08" r="4.7"/>
			</g>
			<g>
				<circle class="st16" cx="416.36" cy="794.08" r="4.7"/>
			</g>
			<g>
				<circle class="st17" cx="402.36" cy="794.08" r="4.7"/>
			</g>
			<g>
				<circle class="st17" cx="388.36" cy="794.08" r="4.7"/>
			</g>
			<g>
				<circle class="st17" cx="374.36" cy="794.08" r="4.7"/>
			</g>
			<g>
				<circle class="st17" cx="360.36" cy="794.08" r="4.7"/>
			</g>
		</g>
		<g>
			<g>
				<circle class="st18" cx="562.36" cy="684.08" r="4.7"/>
			</g>
			<g>
				<circle class="st18" cx="548.36" cy="684.08" r="4.7"/>
			</g>
			<g>
				<circle class="st18" cx="534.36" cy="684.08" r="4.7"/>
			</g>
			<g>
				<circle class="st18" cx="520.36" cy="684.08" r="4.7"/>
			</g>
			<g>
				<circle class="st19" cx="506.36" cy="684.08" r="4.7"/>
			</g>
			<g>
				<circle class="st19" cx="492.36" cy="684.08" r="4.7"/>
			</g>
			<g>
				<circle class="st19" cx="478.36" cy="684.08" r="4.7"/>
			</g>
			<g>
				<circle class="st19" cx="464.36" cy="684.08" r="4.7"/>
			</g>
			<g>
				<circle class="st19" cx="450.36" cy="684.08" r="4.7"/>
			</g>
			<g>
				<circle class="st19" cx="436.36" cy="684.08" r="4.7"/>
			</g>
		</g>
		<g>
			<line class="st1" x1="540.82" y1="609.62" x2="428.06" y2="511.62"/>
			<line class="st1" x1="530.63" y1="573.47" x2="447.08" y2="755.4"/>
		</g>
		<g>
			<circle class="st10" cx="494.7" cy="603.17" r="50.72"/>
			<g>
				<path class="st20" d="M492.94,562.1c1.18,0,2.35,0,3.53,0c0.58,0.05,1.17,0.11,1.75,0.16c3.2,0.27,6.32,0.9,9.3,2.09
					c2.05,0.82,3.97,1.86,5.55,3.43c1.23,1.22,2.16,2.64,2.15,4.43c-0.03,5.65,0.21,11.31-0.23,16.96c-0.15,2-0.43,3.98-1.04,5.91
					c-0.54,1.72-1.33,3.29-2.76,4.47c-1.32,1.08-2.88,1.61-4.52,1.94c-2.48,0.5-4.99,0.59-7.5,0.62c-3.9,0.06-7.81,0.05-11.71,0.11
					c-2.09,0.03-4.16,0.23-6.2,0.71c-3.77,0.89-6.26,3.18-7.53,6.83c-0.6,1.71-0.95,3.47-1.18,5.27c-0.34,2.7-0.42,5.41-0.45,8.12
					c0,0.17,0,0.34,0,0.56c-0.17,0-0.3,0-0.43,0c-2.57,0-5.13,0-7.7,0c-1.01,0-1.95-0.26-2.83-0.76c-1.72-0.97-2.92-2.45-3.89-4.12
					c-2.01-3.47-2.94-7.28-3.39-11.23c-0.1-0.89-0.16-1.78-0.24-2.67c0-1.18,0-2.35,0-3.53c0.02-0.18,0.06-0.36,0.07-0.55
					c0.17-3.05,0.66-6.05,1.62-8.96c0.8-2.44,1.87-4.75,3.6-6.69c1.5-1.68,3.3-2.61,5.65-2.6c9.86,0.05,19.73,0.02,29.59,0.02
					c0.17,0,0.34,0,0.5,0c0-0.71,0-1.37,0-2.06c-6.84,0-13.65,0-20.5,0c0-0.18,0-0.32,0-0.47c0-2.51,0.01-5.03-0.01-7.54
					c-0.01-1.26,0.35-2.4,1.05-3.43c1.13-1.68,2.71-2.82,4.46-3.76c3.33-1.77,6.92-2.62,10.64-3.04
					C491.18,562.25,492.06,562.18,492.94,562.1z M483.42,568.58c-2.1-0.01-3.8,1.68-3.8,3.78c0,2.11,1.68,3.79,3.78,3.8
					c2.1,0.01,3.8-1.68,3.81-3.78C487.21,570.28,485.52,568.59,483.42,568.58z"/>
				<path class="st19" d="M494.73,625.77c6.84,0,13.65,0,20.51,0c0,0.18,0,0.32,0,0.47c0,2.39-0.05,4.79,0.01,7.18
					c0.05,2.06-0.74,3.71-2.16,5.12c-1.76,1.75-3.92,2.86-6.22,3.7c-3.88,1.43-7.91,1.99-12.03,2c-4.2,0.01-8.31-0.54-12.27-1.99
					c-2.32-0.84-4.48-1.95-6.26-3.71c-1.09-1.09-1.9-2.34-2.1-3.91c-0.03-0.22-0.04-0.45-0.04-0.68c0-3.97-0.02-7.94,0.01-11.91
					c0.03-2.89,0.16-5.78,0.72-8.62c0.21-1.08,0.51-2.16,0.87-3.2c0.99-2.86,3.01-4.59,5.94-5.28c1.67-0.39,3.37-0.6,5.08-0.63
					c3.57-0.06,7.14-0.07,10.7-0.11c2.75-0.04,5.51-0.06,8.24-0.46c1.79-0.26,3.54-0.68,5.15-1.53c2.62-1.39,4.11-3.66,4.98-6.4
					c0.72-2.27,1.05-4.61,1.19-6.97c0.13-2.04,0.18-4.08,0.27-6.19c0.11,0,0.25,0,0.39,0c2.41,0,4.81,0.05,7.22-0.01
					c2.06-0.05,3.71,0.74,5.12,2.16c1.75,1.76,2.86,3.92,3.7,6.22c1.63,4.47,2.15,9.11,1.97,13.84c-0.12,3.27-0.62,6.49-1.65,9.6
					c-0.8,2.44-1.87,4.75-3.6,6.69c-1.05,1.18-2.27,2.11-3.86,2.45c-0.45,0.1-0.93,0.13-1.39,0.13c-9.99,0.01-19.97,0.01-29.96,0.01
					c-0.17,0-0.34,0-0.54,0C494.73,624.39,494.73,625.05,494.73,625.77z M506.01,637.77c2.11-0.01,3.78-1.7,3.77-3.81
					c-0.01-2.1-1.7-3.78-3.81-3.77c-2.1,0.01-3.8,1.72-3.78,3.81C502.21,636.1,503.91,637.78,506.01,637.77z"/>
			</g>
		</g>
		<rect x="470.43" y="663.43" class="st2" width="59.23" height="12.82"/>
		<text transform="matrix(1 0 0 1 470.4346 672.9242)" class="st19 st9 st21">PYTHON</text>
	</g>
</g>
<g id="adobe">
	<g>
		<line class="st22" x1="264.4" y1="425.89" x2="218.41" y2="402.41"/>
		<polyline class="st22" points="289.55,334.68 243.36,331.38 218.5,401.14 168.01,422.42 120.58,442.27 113.68,515.08 
			270.1,434.59 		"/>
		<g>
			<path class="st11" d="M242.87,324.64c0.21-0.1,0.39-0.17,0.55-0.26c1.69-0.92,3.38-1.85,5.07-2.77c1.06-0.58,1.59-0.42,2.16,0.62
				c0.92,1.69,1.84,3.39,2.76,5.08c0.09,0.16,0.18,0.33,0.29,0.54c0.86-0.47,1.67-0.91,2.47-1.34c0.37-0.2,0.73-0.4,1.1-0.59
				c0.28-0.14,0.56-0.15,0.73,0.15c0.18,0.31-0.01,0.54-0.27,0.69c-1,0.56-2.01,1.11-3.01,1.66c-0.16,0.09-0.33,0.18-0.55,0.3
				c0.12,0.21,0.2,0.38,0.29,0.54c0.94,1.74,1.89,3.48,2.83,5.22c0.48,0.89,0.32,1.44-0.57,1.93c-4.15,2.26-8.29,4.52-12.44,6.77
				c-0.76,0.41-1.38,0.24-1.79-0.52c-0.96-1.75-1.93-3.5-2.86-5.26c-0.24-0.45-0.42-0.58-0.9-0.29c-0.86,0.52-1.76,0.98-2.64,1.46
				c-0.12,0.07-0.24,0.14-0.37,0.19c-0.28,0.11-0.61,0.13-0.7-0.2c-0.05-0.18,0.13-0.45,0.25-0.65c0.06-0.1,0.23-0.14,0.35-0.21
				c0.91-0.5,1.82-1.01,2.75-1.49c0.36-0.18,0.43-0.34,0.22-0.71c-0.98-1.76-1.94-3.53-2.9-5.3c-0.47-0.87-0.34-1.41,0.53-1.9
				c1.77-0.99,3.56-1.96,5.35-2.91c0.37-0.2,0.42-0.36,0.21-0.71c-0.5-0.87-0.97-1.76-1.45-2.65c-0.07-0.14-0.15-0.28-0.22-0.41
				c-0.15-0.29-0.22-0.59,0.11-0.77c0.33-0.19,0.56,0.02,0.72,0.31c0.53,0.97,1.06,1.95,1.59,2.93
				C242.65,324.24,242.75,324.42,242.87,324.64z"/>
			<path class="st23" d="M242.86,324.53c0.21-0.1,0.39-0.17,0.55-0.26c1.69-0.92,3.38-1.85,5.07-2.77c1.06-0.58,1.59-0.42,2.16,0.62
				c0.92,1.69,1.84,3.39,2.76,5.08c0.09,0.16,0.18,0.33,0.29,0.54c0.86-0.47,1.67-0.91,2.47-1.34c0.37-0.2,0.73-0.4,1.1-0.59
				c0.28-0.14,0.56-0.15,0.73,0.15c0.18,0.31-0.01,0.54-0.27,0.69c-1,0.56-2.01,1.11-3.01,1.66c-0.16,0.09-0.33,0.18-0.55,0.3
				c0.12,0.21,0.2,0.38,0.29,0.54c0.94,1.74,1.89,3.48,2.83,5.22c0.48,0.89,0.32,1.44-0.57,1.93c-4.15,2.26-8.29,4.52-12.44,6.77
				c-0.76,0.41-1.38,0.24-1.79-0.52c-0.96-1.75-1.93-3.5-2.86-5.26c-0.24-0.45-0.42-0.58-0.9-0.29c-0.86,0.52-1.76,0.98-2.64,1.46
				c-0.12,0.07-0.24,0.14-0.37,0.19c-0.28,0.11-0.61,0.13-0.7-0.2c-0.05-0.18,0.13-0.45,0.25-0.65c0.06-0.1,0.23-0.14,0.35-0.21
				c0.91-0.5,1.82-1.01,2.75-1.49c0.36-0.18,0.43-0.34,0.22-0.71c-0.98-1.76-1.94-3.53-2.9-5.3c-0.47-0.87-0.34-1.41,0.53-1.9
				c1.77-0.99,3.56-1.96,5.35-2.91c0.37-0.2,0.42-0.36,0.21-0.71c-0.5-0.87-0.97-1.76-1.45-2.65c-0.07-0.14-0.15-0.28-0.22-0.41
				c-0.15-0.29-0.22-0.59,0.11-0.77c0.33-0.19,0.56,0.02,0.72,0.31c0.53,0.97,1.06,1.95,1.59,2.93
				C242.65,324.13,242.74,324.31,242.86,324.53z M241.61,335.15c0.48,0.88,0.91,1.69,1.36,2.48c0.06,0.1,0.25,0.17,0.39,0.18
				c1.98,0.06,3.95,0.12,5.93,0.16c0.18,0,0.44-0.13,0.54-0.28c1.04-1.66,2.06-3.33,3.06-5.02c0.1-0.17,0.1-0.47,0.01-0.65
				c-0.3-0.64-0.68-1.25-0.99-1.89c-0.17-0.34-0.35-0.42-0.73-0.35c-2.23,0.44-4.46,0.86-6.69,1.28c-0.29,0.06-0.58,0.1-0.97,0.17
				c0.42-0.7,0.76-1.3,1.15-1.87c0.1-0.15,0.36-0.26,0.55-0.26c0.83-0.01,1.66,0.04,2.5,0.06c0.35,0.01,0.7-0.04,0.85,0.4
				c0.02,0.06,0.14,0.13,0.21,0.11c0.84-0.14,1.68-0.3,2.62-0.47c-0.49-0.9-0.91-1.7-1.36-2.47c-0.07-0.11-0.28-0.2-0.43-0.2
				c-1.98-0.06-3.95-0.12-5.93-0.15c-0.18,0-0.43,0.15-0.52,0.3c-1.04,1.66-2.06,3.33-3.07,5.01c-0.09,0.15-0.09,0.44-0.01,0.6
				c0.31,0.64,0.69,1.24,1,1.88c0.18,0.36,0.38,0.45,0.77,0.37c2.36-0.48,4.73-0.92,7.1-1.38c0.16-0.03,0.32-0.05,0.56-0.08
				c-0.43,0.71-0.8,1.34-1.2,1.94c-0.08,0.12-0.31,0.2-0.47,0.2c-0.85,0-1.7-0.03-2.55-0.05c-0.35-0.01-0.71,0.04-0.85-0.41
				c-0.02-0.06-0.18-0.12-0.25-0.11C243.34,334.82,242.51,334.98,241.61,335.15z"/>
		</g>
		<g>
			<circle class="st11" cx="288.92" cy="333.3" r="7.74"/>
			<path class="st23" d="M284.37,326.21c3.87-2.52,9.07-1.4,11.62,2.52c2.52,3.86,1.41,9.09-2.45,11.6
				c-3.91,2.54-9.15,1.46-11.65-2.4C279.32,333.96,280.42,328.79,284.37,326.21z M293.59,329.99c-0.53-0.84-1-1.59-1.49-2.32
				c-0.08-0.12-0.32-0.2-0.48-0.2c-1.96,0.07-3.92,0.15-5.87,0.26c-0.18,0.01-0.43,0.17-0.51,0.32c-0.93,1.73-1.83,3.46-2.72,5.21
				c-0.09,0.17-0.06,0.47,0.03,0.64c0.34,0.6,0.76,1.16,1.11,1.76c0.2,0.35,0.42,0.41,0.8,0.31c2.32-0.64,4.65-1.25,6.98-1.87
				c0.15-0.04,0.31-0.07,0.56-0.12c-0.37,0.7-0.67,1.32-1.02,1.91c-0.1,0.17-0.35,0.33-0.54,0.35c-0.85,0.07-1.7,0.08-2.55,0.12
				c-0.33,0.01-0.66,0.07-0.84-0.33c-0.03-0.07-0.27-0.1-0.4-0.08c-0.51,0.12-1.01,0.26-1.51,0.4c-0.27,0.08-0.54,0.16-0.86,0.26
				c0.48,0.76,0.93,1.44,1.35,2.13c0.18,0.3,0.38,0.39,0.72,0.37c1.91-0.1,3.81-0.16,5.72-0.26c0.2-0.01,0.47-0.16,0.56-0.33
				c0.93-1.73,1.83-3.47,2.71-5.21c0.08-0.16,0.06-0.44-0.03-0.6c-0.36-0.63-0.78-1.23-1.15-1.86c-0.19-0.32-0.38-0.35-0.72-0.26
				c-2.31,0.62-4.63,1.22-6.94,1.83c-0.17,0.04-0.34,0.08-0.61,0.14c0.36-0.69,0.68-1.27,0.95-1.87c0.14-0.3,0.33-0.39,0.65-0.4
				c0.81-0.01,1.63-0.06,2.44-0.09c0.34-0.01,0.7-0.1,0.89,0.33c0.03,0.06,0.21,0.11,0.31,0.09
				C291.91,330.44,292.7,330.22,293.59,329.99z"/>
			<path class="st23" d="M299.77,331.4c1.01-0.64,2.35-0.34,2.97,0.65c0.65,1.03,0.35,2.38-0.66,3.02c-1.01,0.64-2.36,0.33-3.01-0.7
				C298.45,333.37,298.77,332.04,299.77,331.4z"/>
			<path class="st23" d="M281.69,324.44c-0.38-0.69-0.15-1.48,0.56-1.87c0.64-0.35,1.43-0.12,1.8,0.52c0.37,0.65,0.15,1.48-0.5,1.85
				C282.89,325.32,282.05,325.09,281.69,324.44z"/>
			<path class="st23" d="M285.73,342.87c0.29,0.46,0.17,1.04-0.28,1.32c-0.43,0.26-1.01,0.13-1.29-0.29
				c-0.29-0.44-0.16-1.03,0.29-1.32C284.89,342.32,285.45,342.44,285.73,342.87z"/>
		</g>
		<g>
			<path class="st11" d="M261.15,426.23c-2.32,3.42-2.03,8.05,0.69,10.92c3.87,4.09,10.45,3.7,13.85-0.82
				c2.53-3.36,2.43-8.05-0.22-11.05c-2.98-3.37-7.83-4.05-11.63-1.64C262.7,424.37,261.89,425.15,261.15,426.23"/>
			<path class="st24" d="M274.83,424.65c-3.35-3.14-8.47-3.24-12.03-0.24c-3.43,2.88-4.24,7.79-1.94,11.52
				c0.33,0.42,0.64,0.84,0.99,1.25c0.22,0.25,0.46,0.48,0.72,0.69c4.34,3.71,11.08,2.41,13.84-2.65
				C278.33,431.68,277.69,427.34,274.83,424.65z M272.81,437.87c-3.84,2.37-8.84,1.3-11.12-2.38c-2.35-3.78-1.16-8.78,2.65-11.13
				c3.81-2.35,8.84-1.28,11.11,2.37C277.79,430.49,276.6,435.54,272.81,437.87z"/>
			<path class="st25" d="M264.93,429.02c-0.09-0.08-0.29-0.13-0.38-0.08c-0.46,0.26-0.9,0.55-1.34,0.84
				c0.68,2.6,1.35,5.16,2.03,7.76c0.36-0.23,0.68-0.4,0.96-0.63c0.11-0.08,0.19-0.3,0.16-0.43c-0.12-0.55-0.3-1.08-0.42-1.62
				c-0.03-0.13,0.05-0.35,0.16-0.43c0.49-0.35,1.02-0.66,1.52-0.99c0.2-0.14,0.34-0.12,0.51,0.04c0.41,0.36,0.83,0.71,1.26,1.04
				c0.1,0.08,0.29,0.16,0.38,0.11c0.38-0.2,0.73-0.45,1.13-0.7c-0.36-0.3-0.66-0.55-0.97-0.8
				C268.27,431.77,266.61,430.39,264.93,429.02z M265.49,433.56c-0.31-1.08-0.61-2.11-0.94-3.22c0.87,0.75,1.7,1.47,2.54,2.2
				C266.55,432.88,266.05,433.2,265.49,433.56z"/>
			<path class="st25" d="M271.19,427.17c-1.65,0.55-2.32,2.34-1.47,3.93c0.64,1.2,1.63,1.82,2.72,1.66c1.19-0.18,2.04-0.9,2.79-1.83
				c-0.25-0.25-0.46-0.47-0.68-0.69c-1.36,1.5-2.71,1.78-3.3,0.69c1.01-0.64,2.01-1.28,3.05-1.94c-0.28-0.66-0.67-1.16-1.2-1.53
				C272.51,427.06,271.88,426.94,271.19,427.17z M270.72,430.06c-0.42-0.56-0.28-1.36,0.3-1.74c0.59-0.39,1.25-0.19,1.65,0.5
				C272.02,429.23,271.37,429.65,270.72,430.06z"/>
		</g>
		<g>
			<path class="st11" d="M107.36,509.65c-2.32,3.42-2.03,8.05,0.69,10.92c3.87,4.09,10.45,3.7,13.85-0.82
				c2.53-3.36,2.43-8.05-0.22-11.05c-2.98-3.37-7.83-4.05-11.63-1.64C108.91,507.78,108.09,508.57,107.36,509.65"/>
			<path class="st24" d="M121.68,508.7c-2.98-3.37-7.83-4.05-11.63-1.64c-1.14,0.72-1.96,1.51-2.7,2.59
				c-2.32,3.42-2.03,8.05,0.69,10.92c3.87,4.09,10.45,3.7,13.85-0.82C124.43,516.4,124.33,511.7,121.68,508.7z M119.13,521.27
				c-3.8,2.45-8.87,1.39-11.29-2.36c-2.3-3.57-1.16-8.67,2.47-11.03c3.91-2.55,8.92-1.55,11.4,2.26
				C124.07,513.77,122.9,518.83,119.13,521.27z"/>
			<path class="st25" d="M112.51,511.66c-1.39,0.2-2.37,1.12-3.39,1.92c1.37,2.15,2.7,4.25,4.04,6.35c0.38-0.24,0.73-0.47,1.13-0.72
				c-0.51-0.81-1.01-1.59-1.52-2.4c0.81-0.44,1.52-0.93,1.95-1.71c0.47-0.84,0.35-1.66-0.16-2.45
				C114.07,511.92,113.39,511.54,112.51,511.66z M113.37,514.99c-0.32,0.36-0.74,0.63-1.15,0.97c-0.49-0.76-0.91-1.41-1.3-2.07
				c-0.05-0.09-0.01-0.32,0.06-0.37c0.29-0.21,0.6-0.42,0.93-0.55c0.6-0.24,1.11-0.08,1.45,0.39
				C113.76,513.9,113.8,514.51,113.37,514.99z"/>
			<path class="st25" d="M116.96,512.25c-0.25-0.33-0.44-0.57-0.64-0.83c-0.33,0.21-0.64,0.41-0.94,0.6
				c0.99,1.56,1.97,3.09,2.94,4.62c0.4-0.26,0.76-0.48,1.16-0.74c-0.47-0.74-0.93-1.47-1.39-2.19c-0.69-1.09-0.59-1.63,0.45-2.35
				c-0.22-0.35-0.44-0.7-0.67-1.06C117.06,510.7,116.86,511.36,116.96,512.25z"/>
		</g>
		<g>
			<path class="st11" d="M113.24,438.16c-2.32,3.42-2.03,8.05,0.69,10.92c3.87,4.09,10.45,3.7,13.85-0.82
				c2.53-3.36,2.43-8.05-0.22-11.05c-2.98-3.37-7.83-4.05-11.63-1.64C114.79,436.29,113.97,437.07,113.24,438.16"/>
			<path class="st26" d="M126.06,435.81c-3.35-2.42-8.17-2.31-11.5,0.79c-3.76,3.49-3.75,9.26-0.53,12.56
				c2.98,3.06,7.66,3.62,11.37,1.36c0.52-0.44,1.07-0.85,1.55-1.32C130.84,445.41,130.4,438.94,126.06,435.81z M124.95,449.81
				c-3.78,2.39-8.91,1.29-11.23-2.4c-2.34-3.73-1.14-8.77,2.65-11.17c3.81-2.41,8.87-1.34,11.22,2.37
				C129.95,442.35,128.76,447.4,124.95,449.81z"/>
			<path class="st27" d="M117.77,440.35c-1.06,0.35-1.9,1.04-2.74,1.76c1.34,2.1,2.64,4.16,3.94,6.2c0.38-0.24,0.73-0.47,1.12-0.71
				c-0.5-0.79-0.99-1.55-1.42-2.23c0.59-0.53,1.2-0.96,1.66-1.52c0.7-0.87,0.61-1.87-0.12-2.84
				C119.64,440.25,118.78,440.01,117.77,440.35z M119.28,443.38c-0.3,0.45-0.72,0.76-1.28,0.94c-0.41-0.65-0.82-1.28-1.21-1.93
				c-0.05-0.08-0.01-0.29,0.06-0.33c0.31-0.22,0.62-0.44,0.97-0.58c0.53-0.21,1.01-0.04,1.34,0.38
				C119.54,442.37,119.59,442.9,119.28,443.38z"/>
			<path class="st27" d="M124.34,441.48c-0.42,0.03-0.84,0.12-1.25,0.17c-0.3,0.04-0.65,0.03-0.7-0.32
				c-0.03-0.23,0.12-0.58,0.31-0.71c0.32-0.23,0.73-0.33,1.14-0.5c-0.08-0.26-0.17-0.56-0.27-0.89c-0.89,0.16-1.6,0.5-2.1,1.18
				c-0.39,0.54-0.46,1.14-0.13,1.75c0.31,0.58,0.84,0.77,1.45,0.72c0.39-0.03,0.78-0.13,1.16-0.18c0.33-0.04,0.62,0.03,0.74,0.38
				c0.12,0.32-0.03,0.59-0.31,0.73c-0.46,0.24-0.95,0.43-1.48,0.67c0.07,0.23,0.17,0.54,0.27,0.86c1.07-0.15,1.92-0.6,2.51-1.45
				c0.35-0.5,0.37-1.05,0.09-1.59C125.48,441.74,125,441.44,124.34,441.48z"/>
		</g>
		<g>
			<path class="st11" d="M211.07,397.01c-2.32,3.42-2.03,8.05,0.69,10.92c3.87,4.09,10.45,3.7,13.85-0.82
				c2.53-3.36,2.43-8.05-0.22-11.05c-2.98-3.37-7.83-4.05-11.63-1.64C212.63,395.14,211.81,395.92,211.07,397.01"/>
			<path class="st28" d="M224.55,395.19c-3.73-3.28-9.56-2.84-12.82,0.93c-2.66,3.07-3.22,7.86-0.3,11.41
				c2.91,3.53,7.86,4.24,11.79,1.84c0.53-0.45,1.1-0.86,1.59-1.35C228.42,404.43,228.3,398.48,224.55,395.19z M222.81,408.67
				c-3.81,2.42-8.88,1.34-11.25-2.4c-2.37-3.74-1.18-8.77,2.63-11.2c3.79-2.41,8.95-1.32,11.26,2.39
				C227.8,401.23,226.61,406.25,222.81,408.67z"/>
			<path class="st29" d="M216.51,399.14c-0.33-0.28-0.57-0.31-0.89-0.04c-0.2,0.16-0.42,0.3-0.65,0.41
				c-0.28,0.14-0.34,0.3-0.25,0.61c0.37,1.34,0.71,2.69,1.07,4.04c0.27,1.04,0.55,2.07,0.83,3.17c0.34-0.22,0.63-0.42,0.93-0.59
				c0.21-0.12,0.24-0.26,0.17-0.48c-0.18-0.59-0.33-1.19-0.5-1.81c0.41-0.26,0.81-0.52,1.2-0.76c0.8-0.5,0.8-0.5,1.53,0.11
				c1,0.83,1,0.83,2.08,0.08c0.01-0.01,0.02-0.02,0.05-0.08c-0.07-0.07-0.13-0.14-0.2-0.19
				C220.09,402.11,218.29,400.64,216.51,399.14z M216.85,403.4c-0.3-1.01-0.59-2.03-0.91-3.11c0.84,0.72,1.64,1.4,2.47,2.12
				C217.89,402.75,217.39,403.06,216.85,403.4z"/>
			<path class="st29" d="M222.61,403.49c0.38-0.24,0.74-0.47,1.11-0.71c-0.96-1.51-1.91-3-2.87-4.51c-0.38,0.24-0.74,0.47-1.11,0.71
				C220.71,400.49,221.66,401.99,222.61,403.49z"/>
			<path class="st29" d="M219.05,396.71c-0.36,0.24-0.44,0.66-0.21,1.03c0.24,0.37,0.64,0.45,1.01,0.2
				c0.39-0.26,0.48-0.64,0.25-1.01C219.88,396.55,219.43,396.46,219.05,396.71z"/>
		</g>
	</g>
</g>
<g id="Live">
	<g>
		<g>
			<path class="st30" d="M479.62,369.46c0.55-0.65,1.53-0.73,2.18-0.17l10.65,9.16c1.74,1.49,4.13,1.56,5.34,0.15
				c1.21-1.41,0.79-3.77-0.95-5.26l-31.52-27.13l0,0c-1.09-0.94-2.18-1.87-3.26-2.8c0,0,0,0,0,0c-1.44-1.24-2.89-2.48-4.33-3.72
				c-0.78-0.67-1.56-1.35-2.46-1.88c-1.45-0.86-2.98-1.03-4.59-0.6c-1.38,0.37-2.42,1.26-3.32,2.29c-2.73,3.13-5.43,6.3-8.14,9.45
				c-0.74,0.86-1.5,1.71-2.09,2.69c-0.8,1.34-0.99,2.76-0.68,4.27c0.31,1.5,1.23,2.63,2.33,3.6c2.39,2.1,4.81,4.18,7.24,6.24
				c1.4,1.18,2.72,2.46,4.21,3.53l31.43,27.06c1.74,1.49,4.16,1.52,5.42,0.06c1.26-1.46,0.87-3.86-0.87-5.35l-13.29-11.43
				c-0.65-0.56-0.72-1.53-0.16-2.17c0.01-0.01,0.01-0.02,0.02-0.02c0.55-0.64,1.53-0.72,2.17-0.16l25.77,22.18
				c1.74,1.49,4.22,1.46,5.54-0.08c1.32-1.54,0.99-4-0.75-5.49l-25.78-22.18c-0.64-0.55-0.72-1.52-0.17-2.16L479.62,369.46z"/>
			<g>
				<line class="st31" x1="489.42" y1="402.1" x2="504.59" y2="415.2"/>
				<line class="st31" x1="484.52" y1="393.61" x2="521.6" y2="425.63"/>
				<line class="st31" x1="494.4" y1="392.3" x2="544.83" y2="435.84"/>
				<line class="st31" x1="497.19" y1="391.43" x2="556.03" y2="442.23"/>
				<line class="st31" x1="504.47" y1="394.79" x2="536.15" y2="422.14"/>
				<line class="st31" x1="496.07" y1="377.03" x2="529.71" y2="406.09"/>
				<line class="st31" x1="502.96" y1="379.25" x2="514.15" y2="388.91"/>
				<line class="st31" x1="501.54" y1="384.81" x2="518.57" y2="399.51"/>
				<line class="st32" x1="489.42" y1="384.72" x2="548.26" y2="435.52"/>
				<line class="st32" x1="499.89" y1="404.77" x2="518.2" y2="420.57"/>
				<path class="st32" d="M526.15,414.85"/>
				<path class="st32" d="M467.32,364.04"/>
			</g>
			<path class="st33" d="M460.86,344.81c1.54,1.32,3.08,2.63,4.6,3.97c0.67,0.59,1.29,1.23,1.67,2.06c0.75,1.63,0.73,3.24-0.22,4.79
				c-0.33,0.54-0.7,1.05-1.11,1.53c-2.56,3-5.13,6-7.72,8.98c-0.78,0.9-1.68,1.66-2.87,1.98c-1.52,0.4-2.92,0.18-4.23-0.69
				c-1.44-0.97-2.67-2.18-3.98-3.29c-2.1-1.78-4.19-3.57-6.26-5.39c-0.95-0.84-1.75-1.81-2.02-3.11c-0.27-1.31-0.1-2.53,0.59-3.69
				c0.51-0.85,1.16-1.58,1.8-2.33c2.34-2.73,4.68-5.46,7.04-8.17c0.78-0.9,1.68-1.66,2.87-1.98c1.39-0.37,2.71-0.22,3.97,0.52
				c0.78,0.46,1.45,1.05,2.13,1.63C458.36,342.66,459.61,343.74,460.86,344.81C460.86,344.81,460.86,344.81,460.86,344.81z
				 M459.19,349.55c0.25,0.73,0.08,1.33-0.55,1.76c-0.45,0.31-0.98,0.24-1.55-0.17c0.77-0.9,1.54-1.8,2.32-2.7
				c-0.16-0.14-0.29-0.27-0.44-0.38c-0.81-0.57-1.67-0.8-2.6-0.31c-0.74,0.39-1.41,1.46-1.2,2.46c0.2,0.91,0.69,1.61,1.49,2.06
				c0.86,0.48,1.76,0.55,2.58-0.09c0.29-0.22,0.52-0.52,0.73-0.81c0.47-0.67,0.53-1.4,0.25-2.2
				C459.88,349.3,459.54,349.42,459.19,349.55z M452.19,358.56c-0.43,0.5-0.85,0.99-1.26,1.47c-0.25,0.29-0.25,0.29-0.54,0.04
				c-1.55-1.33-3.1-2.66-4.64-4c-0.16-0.14-0.26-0.17-0.4,0.02c-0.12,0.16-0.25,0.32-0.4,0.46c-0.19,0.18-0.14,0.28,0.04,0.44
				c1.85,1.58,3.7,3.18,5.55,4.76c0.07,0.06,0.14,0.12,0.21,0.18c0.78-0.9,1.53-1.77,2.28-2.65
				C452.74,359.03,452.48,358.81,452.19,358.56z M456.51,355.78c-0.8-1.84-1.57-3.61-2.36-5.42c-0.24,0.27-0.42,0.52-0.64,0.74
				c-0.17,0.17-0.18,0.32-0.08,0.53c0.35,0.72,0.69,1.46,1.02,2.19c0.04,0.1,0.08,0.19,0.14,0.33c-0.11-0.03-0.16-0.04-0.21-0.05
				c-0.84-0.25-1.68-0.5-2.52-0.74c-0.09-0.03-0.24-0.04-0.29,0.01c-0.26,0.28-0.51,0.57-0.79,0.9
				C452.71,354.78,454.58,355.27,456.51,355.78z M449.73,355.51c1.27,1.09,2.51,2.16,3.75,3.23c0.25-0.29,0.48-0.56,0.71-0.82
				c-1.26-1.08-2.5-2.15-3.75-3.23C450.2,354.97,449.97,355.24,449.73,355.51z M448.02,354.28c0.33,0.29,0.73,0.26,1.02-0.07
				c0.29-0.33,0.26-0.76-0.1-1.04c-0.37-0.29-0.71-0.25-1,0.08C447.66,353.58,447.67,353.94,448.02,354.28z"/>
			<path class="st33" d="M456.43,350.45c-0.37-0.51-0.34-1.12,0.06-1.54c0.41-0.42,0.97-0.5,1.42-0.19
				C457.43,349.29,456.94,349.86,456.43,350.45z"/>
		</g>
		<line class="st32" x1="440.71" y1="364.04" x2="449.24" y2="371.49"/>
		<line class="st32" x1="459.13" y1="339.24" x2="488.22" y2="364.04"/>
		<line class="st32" x1="465.63" y1="343.25" x2="478.01" y2="353.73"/>
	</g>
</g>
<g id="Unreal">
	<g>
		<rect x="62.09" y="763.46" class="st2" width="54.53" height="12.82"/>
		<text transform="matrix(1 0 0 1 62.0891 773.6299)" class="st3 st9 st34">VR</text>
		<g>
			<g>
				<circle class="st6" cx="192.54" cy="785.95" r="4.45"/>
			</g>
			<g>
				<circle class="st6" cx="178.54" cy="785.95" r="4.45"/>
			</g>
			<g>
				<circle class="st6" cx="164.54" cy="785.95" r="4.45"/>
			</g>
			<g>
				<circle class="st0" cx="150.54" cy="785.95" r="4.45"/>
			</g>
			<g>
				<circle class="st0" cx="136.54" cy="785.95" r="4.45"/>
			</g>
			<g>
				<circle class="st0" cx="122.54" cy="785.95" r="4.45"/>
			</g>
			<g>
				<circle class="st0" cx="108.54" cy="785.95" r="4.45"/>
			</g>
			<g>
				<circle class="st0" cx="94.54" cy="785.95" r="4.45"/>
			</g>
			<g>
				<circle class="st0" cx="80.54" cy="785.95" r="4.45"/>
			</g>
			<g>
				<circle class="st0" cx="66.54" cy="785.95" r="4.45"/>
			</g>
		</g>
		<g>
			<g>
				<circle class="st6" cx="366.54" cy="725.95" r="4.45"/>
			</g>
			<g>
				<circle class="st6" cx="352.54" cy="725.95" r="4.45"/>
			</g>
			<g>
				<circle class="st6" cx="338.54" cy="725.95" r="4.45"/>
			</g>
			<g>
				<circle class="st6" cx="324.54" cy="725.95" r="4.45"/>
			</g>
			<g>
				<circle class="st6" cx="310.54" cy="725.95" r="4.45"/>
			</g>
			<g>
				<circle class="st6" cx="296.54" cy="725.95" r="4.45"/>
			</g>
			<g>
				<circle class="st0" cx="282.54" cy="725.95" r="4.45"/>
			</g>
			<g>
				<circle class="st0" cx="268.54" cy="725.95" r="4.45"/>
			</g>
			<g>
				<circle class="st0" cx="254.54" cy="725.95" r="4.45"/>
			</g>
			<g>
				<circle class="st0" cx="240.54" cy="725.95" r="4.45"/>
			</g>
		</g>
		<g>
			<g>
				<circle class="st35" cx="162.68" cy="559.5" r="4.45"/>
			</g>
			<g>
				<circle class="st35" cx="148.68" cy="559.5" r="4.45"/>
			</g>
			<g>
				<circle class="st35" cx="134.68" cy="559.5" r="4.45"/>
			</g>
			<g>
				<circle class="st35" cx="120.68" cy="559.5" r="4.45"/>
			</g>
			<g>
				<circle class="st3" cx="106.68" cy="559.5" r="4.45"/>
			</g>
			<g>
				<circle class="st3" cx="92.68" cy="559.5" r="4.45"/>
			</g>
			<g>
				<circle class="st3" cx="78.68" cy="559.5" r="4.45"/>
			</g>
			<g>
				<circle class="st3" cx="64.68" cy="559.5" r="4.45"/>
			</g>
			<g>
				<circle class="st3" cx="50.68" cy="559.5" r="4.45"/>
			</g>
			<g>
				<circle class="st3" cx="36.68" cy="559.5" r="4.45"/>
			</g>
		</g>
		<rect x="221.52" y="565.7" class="st2" width="66.09" height="12.82"/>
		<text transform="matrix(1 0 0 1 221.5186 575.8701)" class="st3 st9 st34">ArchViz</text>
		<rect x="74.2" y="540.96" class="st2" width="54.53" height="12.82"/>
		<text transform="matrix(1 0 0 1 74.1973 549.0674)" class="st3 st9 st5">UNREAL</text>
		<g>
			<g>
				<circle class="st6" cx="351.97" cy="588.19" r="4.45"/>
			</g>
			<g>
				<circle class="st6" cx="337.97" cy="588.19" r="4.45"/>
			</g>
			<g>
				<circle class="st6" cx="323.97" cy="588.19" r="4.45"/>
			</g>
			<g>
				<circle class="st6" cx="309.97" cy="588.19" r="4.45"/>
			</g>
			<g>
				<circle class="st0" cx="295.97" cy="588.19" r="4.45"/>
			</g>
			<g>
				<circle class="st0" cx="281.97" cy="588.19" r="4.45"/>
			</g>
			<g>
				<circle class="st0" cx="267.97" cy="588.19" r="4.45"/>
			</g>
			<g>
				<circle class="st0" cx="253.97" cy="588.19" r="4.45"/>
			</g>
			<g>
				<circle class="st0" cx="239.97" cy="588.19" r="4.45"/>
			</g>
			<g>
				<circle class="st0" cx="225.97" cy="588.19" r="4.45"/>
			</g>
		</g>
		<rect x="235.74" y="701.66" class="st2" width="139.32" height="17.12"/>
		<text transform="matrix(1 0 0 1 235.7391 712.9368)" class="st3 st9 st13">C++</text>
		<g>
			<g>
				<path d="M132.05,723.28"/>
				<path d="M103.62,612.41"/>
				<line class="st1" x1="69.41" y1="618.52" x2="99.68" y2="763.46"/>
			</g>
			<g>
				<path d="M236.08,588.64"/>
				<line class="st1" x1="102.82" y1="666.59" x2="223.92" y2="589.41"/>
			</g>
		</g>
		<g>
			<path class="st3" d="M102.82,666.59c23.96,0.31,43.91-19.32,44.64-42.97c0.79-25.17-19.46-45.06-42.62-45.94
				c-25.53-0.97-45.67,19.57-46.33,43.14C57.8,646.08,78.59,666.78,102.82,666.59z"/>
			<path class="st36" d="M103.43,671.86c-27.09,0.22-50.34-22.93-49.55-51.17c0.74-26.36,23.26-49.32,51.81-48.24
				c25.89,0.98,48.54,23.21,47.66,51.36C152.52,650.25,130.22,672.2,103.43,671.86z M145.77,622.21
				c-0.41-23.88-18.82-42.2-42.3-42.11c-23.53,0.1-41.84,18.45-41.91,41.93c-0.07,23.93,18.78,42.36,42.29,42.19
				C127.69,664.05,145.36,645.36,145.77,622.21z"/>
			<path class="st37" d="M138.17,630.5c-1.39,2.08-2.67,4.25-4.2,6.23c-3.75,4.85-8.3,8.81-13.81,11.56c-0.67,0.33-1.74,0.28-2.46,0
				c-1.68-0.66-3.33-1.46-4.85-2.42c-1.24-0.78-1.96-0.45-2.86,0.52c-1.77,1.91-3.64,3.73-5.53,5.53c-0.4,0.39-1.07,0.81-1.55,0.75
				c-6.17-0.84-12.08-2.5-17.15-6.28c-1.83-1.36-3.39-3.07-5.28-4.82c2.06-0.13,3.64-0.18,5.22-0.33c1.75-0.17,2.55-1.14,2.54-2.95
				c-0.03-7.31,0.04-14.62,0.01-21.93c-0.01-3.09-1.67-4.17-4.56-2.96c-3.73,1.57-6.35,4.5-8.7,7.64c-1.94,2.6-3.69,5.35-5.55,8.08
				c-0.58-15.82,14.88-34.07,33.62-37.35c-1.61,1.42-3.12,2.71-4.58,4.06c-2.44,2.28-2.94,5.05-2.05,8.21
				c0.49,1.75,1.29,2.99,3.33,2.88c0,5.98,0.01,11.85,0,17.73c-0.01,2.95-0.1,5.89-0.08,8.84c0.01,3.12,2.02,4.73,5.03,3.77
				c2.07-0.66,4-1.79,5.94-2.82c0.36-0.19,0.61-0.92,0.61-1.39c0.04-7.37,0.04-14.74,0.02-22.1c-0.01-2.68-1.33-4.85-2.87-6.92
				c-0.19-0.26-0.39-0.51-0.59-0.76c0.09-0.16,0.18-0.32,0.26-0.48c1.54,0.65,3.09,1.3,4.83,2.04c4.39-4.91,10.53-7.44,17.32-9.36
				c-1.86,2.67-3.55,5.11-5.24,7.54c-1.59,2.29-2.37,4.74-2.32,7.62c0.14,7.76,0.05,15.53,0.05,23.29c0,2.71,1.91,4.15,4.58,3.36
				c3.86-1.14,6.88-3.59,9.69-6.35c0.24-0.23,0.46-0.48,0.69-0.72C137.83,630.3,138,630.4,138.17,630.5z"/>
		</g>
		<g>
			<path class="st38" d="M270.92,674.8c0,2.96-0.06,5.92,0.02,8.88c0.05,1.76-0.72,2.94-2.17,3.78c-5.12,2.95-10.26,5.88-15.38,8.84
				c-1.47,0.85-2.84,0.9-4.35,0.02c-5.11-2.98-10.23-5.94-15.4-8.81c-1.56-0.87-2.05-2.24-2.07-3.74c-0.08-6-0.06-12.01-0.02-18.01
				c0.01-1.3,0.58-2.45,1.75-3.13c3.91-2.28,7.85-4.52,11.78-6.78c1.92-0.96,3.76-2.55,5.83-3.06c6.39,2.15,12.01,6.68,18.05,9.78
				c1.25,0.73,2.06,1.74,1.98,3.42C270.82,668.93,270.92,671.87,270.92,674.8z M236.86,675.48c0.61,12.13,17.73,17.16,24.37,6.39
				c0.28-0.46,0.27-0.74-0.24-1.02c-1.4-0.78-2.8-1.57-4.15-2.42c-1.73-1.53-2.68,4.67-9.21,2.29c-2.66-1.13-3.56-3.29-3.64-5.94
				c-0.35-5.82,7.86-8.54,11.17-3.78c0.32,0.42,0.65,0.63,1.15,0.35c1.57-0.9,3.14-1.81,4.72-2.71c0.56-0.32,0.65-0.67,0.27-1.23
				c-0.97-1.43-2.16-2.64-3.58-3.62C249,657.55,236.46,664.38,236.86,675.48z M259.12,678.13c2.04,0.34,0.2-2.54,2.29-2.19
				c0.82,0.09,1.05-0.39,1.05-1.12c0.21-2.21-2.51-0.13-2.22-2.41c0.08-0.81-0.45-0.92-1.1-0.92c-2.2-0.26-0.19,2.41-2.34,2.15
				c-0.83-0.09-1.02,0.42-1.01,1.14c0.01,0.71,0.18,1.23,1.02,1.15C258.9,675.61,257.05,678.47,259.12,678.13z M266.52,671.84
				c-0.62-0.07-1.06,0.13-1.01,0.88c0.24,1.74-2.06,0.32-1.9,2.01c0.01,0.63,0.16,1.12,0.91,1.07c1.75-0.18,0.24,2.16,2.04,1.99
				c1.8,0.2,0.31-2.18,2.05-1.98c0.8,0.06,0.98-0.41,0.99-1.09c0.21-1.7-2.16-0.28-1.98-1.93
				C267.67,672.02,267.27,671.75,266.52,671.84z"/>
		</g>
	</g>
</g>
</svg>
