{
    "asset" : {
        "generator" : "Khronos glTF Blender I/O v3.3.32",
        "version" : "2.0"
    },
    "extensionsUsed" : [
        "KHR_materials_specular",
        "KHR_materials_ior"
    ],
    "scene" : 0,
    "scenes" : [
        {
            "name" : "Scene",
            "nodes" : [
                0,
                1
            ]
        }
    ],
    "nodes" : [
        {
            "mesh" : 0,
            "name" : "Text"
        },
        {
            "mesh" : 1,
            "name" : "Text.004"
        }
    ],
    "materials" : [
        {
            "doubleSided" : true,
            "extensions" : {
                "KHR_materials_specular" : {
                    "specularColorFactor" : [
                        2.371357614441398,
                        2.371357614441398,
                        2.371357614441398
                    ]
                },
                "KHR_materials_ior" : {
                    "ior" : 1.4500000476837158
                }
            },
            "name" : "Material.001",
            "pbrMetallicRoughness" : {
                "metallicFactor" : 0
            }
        }
    ],
    "meshes" : [
        {
            "name" : "Text",
            "primitives" : [
                {
                    "attributes" : {
                        "POSITION" : 0,
                        "NORMAL" : 1,
                        "TEXCOORD_0" : 2
                    },
                    "indices" : 3,
                    "material" : 0
                }
            ]
        },
        {
            "name" : "Text.005",
            "primitives" : [
                {
                    "attributes" : {
                        "POSITION" : 4,
                        "NORMAL" : 5,
                        "TEXCOORD_0" : 6
                    },
                    "indices" : 7
                }
            ]
        }
    ],
    "accessors" : [
        {
            "bufferView" : 0,
            "componentType" : 5126,
            "count" : 1970,
            "max" : [
                22.73625373840332,
                15.088232040405273,
                1.8815951347351074
            ],
            "min" : [
                -19.592912673950195,
                2.726588010787964,
                0.48159581422805786
            ],
            "type" : "VEC3"
        },
        {
            "bufferView" : 1,
            "componentType" : 5126,
            "count" : 1970,
            "type" : "VEC3"
        },
        {
            "bufferView" : 2,
            "componentType" : 5126,
            "count" : 1970,
            "type" : "VEC2"
        },
        {
            "bufferView" : 3,
            "componentType" : 5123,
            "count" : 7476,
            "type" : "SCALAR"
        },
        {
            "bufferView" : 4,
            "componentType" : 5126,
            "count" : 1238,
            "max" : [
                17.743925094604492,
                5.288791656494141,
                1.464554786682129
            ],
            "min" : [
                7.427291393280029,
                1.0631599426269531,
                0.8986359238624573
            ],
            "type" : "VEC3"
        },
        {
            "bufferView" : 5,
            "componentType" : 5126,
            "count" : 1238,
            "type" : "VEC3"
        },
        {
            "bufferView" : 6,
            "componentType" : 5126,
            "count" : 1238,
            "type" : "VEC2"
        },
        {
            "bufferView" : 7,
            "componentType" : 5123,
            "count" : 4764,
            "type" : "SCALAR"
        }
    ],
    "bufferViews" : [
        {
            "buffer" : 0,
            "byteLength" : 23640,
            "byteOffset" : 0,
            "target" : 34962
        },
        {
            "buffer" : 0,
            "byteLength" : 23640,
            "byteOffset" : 23640,
            "target" : 34962
        },
        {
            "buffer" : 0,
            "byteLength" : 15760,
            "byteOffset" : 47280,
            "target" : 34962
        },
        {
            "buffer" : 0,
            "byteLength" : 14952,
            "byteOffset" : 63040,
            "target" : 34963
        },
        {
            "buffer" : 0,
            "byteLength" : 14856,
            "byteOffset" : 77992,
            "target" : 34962
        },
        {
            "buffer" : 0,
            "byteLength" : 14856,
            "byteOffset" : 92848,
            "target" : 34962
        },
        {
            "buffer" : 0,
            "byteLength" : 9904,
            "byteOffset" : 107704,
            "target" : 34962
        },
        {
            "buffer" : 0,
            "byteLength" : 9528,
            "byteOffset" : 117608,
            "target" : 34963
        }
    ],
    "buffers" : [
        {
            "byteLength" : 127136,
            "uri" : "data:application/octet-stream;base64,"
        }
    ]
}
