{
    "asset" : {
        "generator" : "Khronos glTF Blender I/O v1.8.19",
        "version" : "2.0"
    },
    "scene" : 0,
    "scenes" : [
        {
            "name" : "Scene",
            "nodes" : [
                0,
                1,
                2,
                3,
                4
            ]
        }
    ],
    "nodes" : [
        {
            "mesh" : 0,
            "name" : "Cube",
            "scale" : [
                1,
                2.5115721225738525,
                1
            ],
            "translation" : [
                0,
                2.658125877380371,
                0
            ]
        },
        {
            "mesh" : 1,
            "name" : "Cone",
            "translation" : [
                -61.79999923706055,
                -0.9393939971923828,
                -8.203307151794434
            ]
        },
        {
            "mesh" : 2,
            "name" : "Cone.001",
            "translation" : [
                -20.599998474121094,
                -0.9393939971923828,
                -8.203307151794434
            ]
        },
        {
            "mesh" : 3,
            "name" : "Cone.002",
            "translation" : [
                0,
                -0.9393939971923828,
                -8.203307151794434
            ]
        },
        {
            "mesh" : 4,
            "name" : "Cone.003",
            "translation" : [
                -41.19999694824219,
                -0.939393937587738,
                -8.203307151794434
            ]
        }
    ],
    "materials" : [
        {
            "doubleSided" : true,
            "name" : "Material",
            "pbrMetallicRoughness" : {
                "baseColorFactor" : [
                    0.800000011920929,
                    0.800000011920929,
                    0.800000011920929,
                    1
                ],
                "metallicFactor" : 0,
                "roughnessFactor" : 0.4000000059604645
            }
        }
    ],
    "meshes" : [
        {
            "name" : "Cube",
            "primitives" : [
                {
                    "attributes" : {
                        "POSITION" : 0,
                        "NORMAL" : 1,
                        "TEXCOORD_0" : 2
                    },
                    "indices" : 3,
                    "material" : 0
                }
            ]
        },
        {
            "name" : "Cone",
            "primitives" : [
                {
                    "attributes" : {
                        "POSITION" : 4,
                        "NORMAL" : 5,
                        "TEXCOORD_0" : 6
                    },
                    "indices" : 7
                }
            ]
        },
        {
            "name" : "Cone.001",
            "primitives" : [
                {
                    "attributes" : {
                        "POSITION" : 8,
                        "NORMAL" : 9,
                        "TEXCOORD_0" : 10
                    },
                    "indices" : 11
                }
            ]
        },
        {
            "name" : "Cone.002",
            "primitives" : [
                {
                    "attributes" : {
                        "POSITION" : 12,
                        "NORMAL" : 13,
                        "TEXCOORD_0" : 14
                    },
                    "indices" : 15
                }
            ]
        },
        {
            "name" : "Cone.003",
            "primitives" : [
                {
                    "attributes" : {
                        "POSITION" : 16,
                        "NORMAL" : 17,
                        "TEXCOORD_0" : 18
                    },
                    "indices" : 7
                }
            ]
        }
    ],
    "accessors" : [
        {
            "bufferView" : 0,
            "componentType" : 5126,
            "count" : 384,
            "max" : [
                1,
                1,
                1
            ],
            "min" : [
                -60.999996185302734,
                -1,
                -1
            ],
            "type" : "VEC3"
        },
        {
            "bufferView" : 1,
            "componentType" : 5126,
            "count" : 384,
            "type" : "VEC3"
        },
        {
            "bufferView" : 2,
            "componentType" : 5126,
            "count" : 384,
            "type" : "VEC2"
        },
        {
            "bufferView" : 3,
            "componentType" : 5123,
            "count" : 576,
            "type" : "SCALAR"
        },
        {
            "bufferView" : 4,
            "componentType" : 5126,
            "count" : 128,
            "max" : [
                1.0000038146972656,
                1.9393939971923828,
                1
            ],
            "min" : [
                -0.9999961853027344,
                -0.06060600280761719,
                -1
            ],
            "type" : "VEC3"
        },
        {
            "bufferView" : 5,
            "componentType" : 5126,
            "count" : 128,
            "type" : "VEC3"
        },
        {
            "bufferView" : 6,
            "componentType" : 5126,
            "count" : 128,
            "type" : "VEC2"
        },
        {
            "bufferView" : 7,
            "componentType" : 5123,
            "count" : 186,
            "type" : "SCALAR"
        },
        {
            "bufferView" : 8,
            "componentType" : 5126,
            "count" : 128,
            "max" : [
                1,
                1.9393939971923828,
                1
            ],
            "min" : [
                -1,
                -0.06060600280761719,
                -1
            ],
            "type" : "VEC3"
        },
        {
            "bufferView" : 9,
            "componentType" : 5126,
            "count" : 128,
            "type" : "VEC3"
        },
        {
            "bufferView" : 10,
            "componentType" : 5126,
            "count" : 128,
            "type" : "VEC2"
        },
        {
            "bufferView" : 11,
            "componentType" : 5123,
            "count" : 186,
            "type" : "SCALAR"
        },
        {
            "bufferView" : 12,
            "componentType" : 5126,
            "count" : 128,
            "max" : [
                1,
                1.9393939971923828,
                1
            ],
            "min" : [
                -1,
                -0.06060600280761719,
                -1
            ],
            "type" : "VEC3"
        },
        {
            "bufferView" : 13,
            "componentType" : 5126,
            "count" : 128,
            "type" : "VEC3"
        },
        {
            "bufferView" : 14,
            "componentType" : 5126,
            "count" : 128,
            "type" : "VEC2"
        },
        {
            "bufferView" : 15,
            "componentType" : 5123,
            "count" : 186,
            "type" : "SCALAR"
        },
        {
            "bufferView" : 16,
            "componentType" : 5126,
            "count" : 128,
            "max" : [
                1,
                1.9393939971923828,
                1
            ],
            "min" : [
                -1,
                -0.06060606241226196,
                -1
            ],
            "type" : "VEC3"
        },
        {
            "bufferView" : 17,
            "componentType" : 5126,
            "count" : 128,
            "type" : "VEC3"
        },
        {
            "bufferView" : 18,
            "componentType" : 5126,
            "count" : 128,
            "type" : "VEC2"
        }
    ],
    "bufferViews" : [
        {
            "buffer" : 0,
            "byteLength" : 4608,
            "byteOffset" : 0
        },
        {
            "buffer" : 0,
            "byteLength" : 4608,
            "byteOffset" : 4608
        },
        {
            "buffer" : 0,
            "byteLength" : 3072,
            "byteOffset" : 9216
        },
        {
            "buffer" : 0,
            "byteLength" : 1152,
            "byteOffset" : 12288
        },
        {
            "buffer" : 0,
            "byteLength" : 1536,
            "byteOffset" : 13440
        },
        {
            "buffer" : 0,
            "byteLength" : 1536,
            "byteOffset" : 14976
        },
        {
            "buffer" : 0,
            "byteLength" : 1024,
            "byteOffset" : 16512
        },
        {
            "buffer" : 0,
            "byteLength" : 372,
            "byteOffset" : 17536
        },
        {
            "buffer" : 0,
            "byteLength" : 1536,
            "byteOffset" : 17908
        },
        {
            "buffer" : 0,
            "byteLength" : 1536,
            "byteOffset" : 19444
        },
        {
            "buffer" : 0,
            "byteLength" : 1024,
            "byteOffset" : 20980
        },
        {
            "buffer" : 0,
            "byteLength" : 372,
            "byteOffset" : 22004
        },
        {
            "buffer" : 0,
            "byteLength" : 1536,
            "byteOffset" : 22376
        },
        {
            "buffer" : 0,
            "byteLength" : 1536,
            "byteOffset" : 23912
        },
        {
            "buffer" : 0,
            "byteLength" : 1024,
            "byteOffset" : 25448
        },
        {
            "buffer" : 0,
            "byteLength" : 372,
            "byteOffset" : 26472
        },
        {
            "buffer" : 0,
            "byteLength" : 1536,
            "byteOffset" : 26844
        },
        {
            "buffer" : 0,
            "byteLength" : 1536,
            "byteOffset" : 28380
        },
        {
            "buffer" : 0,
            "byteLength" : 1024,
            "byteOffset" : 29916
        }
    ],
    "buffers" : [
        {
            "byteLength" : 30940,
            "uri" : "data:application/octet-stream;base64,"
        }
    ]
}
