<?xml version="1.0" encoding="utf-8"?>
<!-- Generator: Adobe Illustrator 26.0.0, SVG Export Plug-In . SVG Version: 6.00 Build 0)  -->
<svg version="1.1" id="Layer_1" xmlns="http://www.w3.org/2000/svg" xmlns:xlink="http://www.w3.org/1999/xlink" x="0px" y="0px"
	 viewBox="0 0 100 100" style="enable-background:new 0 0 100 100;" xml:space="preserve">
<style type="text/css">
	.st0{fill:#FFFFFF;}
</style>
<g>
	<path d="M1,53.86c4.92-8.79,12.05-15.32,20.9-20.21c-5.38-2.75-2.45-8.33,1.78-5.7c1.51,0.83,2.82,2.69,4.58,2.78
		c2.09-0.66,4.17-1.38,6.37-2.12c-0.73-1.65-1.53-3.32-2.26-4.98c-1.46-3.35,3.59-5.64,5.12-2.32c3.64,7.48,1.28,6.27,9.68,5.41
		c0.37-2.91-1.47-8.62,2.81-9.01c4.45,0.31,2.35,6.14,2.98,9.05c7.97,0.65,6.04,2.13,9.47-5.22c1.59-3.73,6.94-1.23,5.12,2.38
		c-0.7,1.56-1.43,3.12-2.15,4.68c7.5,2.14,5.21,3.69,11.06-0.73c4.22-2.47,6.95,3.1,1.75,5.72c8.23,4.77,15.4,10.95,20.26,19.21
		c0.77,1.28,0.64,2.43-0.12,3.66c-6.61,10.71-16,17.96-27.73,22.26C46.19,88,11.64,78.98,1,53.86z M47.4,51.73
		c-0.2-2.27,0.13-2.65,2.23-2.65c1.95,0,3.89,0.02,5.84-0.01c3.71,0.09,3.84-5.61,0.11-5.6c-2.55-0.04-5.1-0.06-7.65,0.06
		c-3.16,0.16-5.96,2.89-6.13,6.05c0.02,5.4-1.91,14.46,5.21,15.78c4.48,1.04,10.85-0.33,11.25-5.68
		C58.97,53.03,52.97,51.08,47.4,51.73z M34.24,59.58c-0.02,0.12-0.04,0.24-0.06,0.36c-3.11,0.66-10.66-1.74-10.95,2.8
		c-0.05,1.54,1.13,2.85,2.82,2.89c2.84,0.05,5.68,0.07,8.51-0.07c5.65-0.21,7.26-8.29,2.41-11.01c4.99-2.92,3.14-10.97-2.71-11.04
		c-2.74-0.11-5.48-0.05-8.23-0.03c-1.68-0.03-3.1,1.66-2.76,3.28c0.78,4.11,7.89,1.6,10.94,2.48c0.01,0.1,0.01,0.19,0.02,0.29
		c-2.89,1.13-8.29,0.9-8.24,5.04C25.97,58.69,31.35,58.42,34.24,59.58z M60.15,54.44c0.01,0,0.01,0,0.02,0
		c-0.13,3.81-0.41,8.34,3.58,10.32c5.05,2.33,12.92,0.82,13.07-6.09c-0.24-5.07,1.65-12.17-4.21-14.63
		c-1.89-0.86-3.94-0.66-5.93-0.53C60.75,43.83,59.66,49.54,60.15,54.44z"/>
	<path class="st0" d="M47.4,51.73c5.57-0.66,11.57,1.31,10.86,7.95c-0.4,5.34-6.77,6.72-11.25,5.68
		c-7.13-1.32-5.19-10.37-5.21-15.78c0.17-3.16,2.97-5.89,6.13-6.05c2.54-0.13,5.1-0.11,7.65-0.06c3.73,0,3.6,5.69-0.11,5.6
		c-1.94,0.02-3.89,0.01-5.84,0.01C47.54,49.08,47.2,49.46,47.4,51.73z M47.38,57.37c-0.53,3.12,1.59,2.64,3.85,2.62
		c1.92,0.06,1.89-2.65,0.12-2.61C50.06,57.33,48.76,57.37,47.38,57.37z"/>
	<path class="st0" d="M34.24,59.58c-2.88-1.16-8.27-0.89-8.25-5.03c-0.04-4.14,5.35-3.9,8.24-5.04c-0.01-0.1-0.01-0.19-0.02-0.29
		c-3.06-0.88-10.15,1.63-10.94-2.48c-0.34-1.62,1.07-3.31,2.76-3.28c2.74-0.02,5.49-0.08,8.23,0.03c5.85,0.08,7.7,8.12,2.71,11.04
		c4.85,2.73,3.24,10.8-2.41,11.01c-2.83,0.14-5.67,0.12-8.51,0.07c-1.69-0.03-2.87-1.34-2.82-2.88c0.28-4.54,7.85-2.15,10.95-2.8
		C34.2,59.82,34.22,59.7,34.24,59.58z"/>
	<path class="st0" d="M60.15,54.44c-0.5-4.9,0.6-10.62,6.52-10.93c1.99-0.13,4.04-0.34,5.93,0.53c5.87,2.47,3.97,9.57,4.21,14.63
		c-0.15,6.91-8.02,8.42-13.07,6.09c-3.99-1.98-3.71-6.5-3.58-10.32C60.17,54.44,60.16,54.44,60.15,54.44z M71.15,54.53
		c-0.33-1.71,1.07-5.32-1.54-5.44c-1.34,0.07-3.84-0.55-3.82,1.46c-0.04,2.67-0.04,5.35,0,8.02c-0.02,1.96,2.44,1.35,3.75,1.43
		C72.22,59.98,70.82,56.26,71.15,54.53z"/>
	<path d="M47.38,57.37c1.38,0,2.68-0.04,3.97,0.01c1.77-0.04,1.8,2.67-0.12,2.61C48.97,60,46.86,60.48,47.38,57.37z"/>
	<path d="M71.15,54.53c-0.32,1.73,1.08,5.44-1.61,5.46c-1.31-0.08-3.77,0.53-3.75-1.43c-0.04-2.67-0.04-5.35,0-8.02
		c-0.02-2.01,2.48-1.38,3.82-1.46C72.22,49.21,70.82,52.82,71.15,54.53z"/>
</g>
</svg>
